<?xml version="1.0" encoding="UTF-8" standalone="no"?>
<!-- Creator: CorelDRAW -->

<svg
   xml:space="preserve"
   width="2048px"
   height="2048px"
   style="shape-rendering:geometricPrecision; text-rendering:geometricPrecision; image-rendering:optimizeQuality; fill-rule:evenodd; clip-rule:evenodd"
   viewBox="0 0 2048 2048"
   version="1.1"
   id="svg28"
   sodipodi:docname="clear sky.svg"
   inkscape:version="1.2 (dc2aedaf03, 2022-05-15)"
   xmlns:inkscape="http://www.inkscape.org/namespaces/inkscape"
   xmlns:sodipodi="http://sodipodi.sourceforge.net/DTD/sodipodi-0.dtd"
   xmlns="http://www.w3.org/2000/svg"
   xmlns:svg="http://www.w3.org/2000/svg"><sodipodi:namedview
   id="namedview30"
   pagecolor="#505050"
   bordercolor="#eeeeee"
   borderopacity="1"
   inkscape:showpageshadow="0"
   inkscape:pageopacity="0"
   inkscape:pagecheckerboard="0"
   inkscape:deskcolor="#505050"
   showgrid="false"
   inkscape:zoom="0.41357422"
   inkscape:cx="891.01299"
   inkscape:cy="831.77332"
   inkscape:window-width="1920"
   inkscape:window-height="1027"
   inkscape:window-x="-8"
   inkscape:window-y="-8"
   inkscape:window-maximized="1"
   inkscape:current-layer="Layer_x0020_1" />
 <defs
   id="defs4">
  <style
   type="text/css"
   id="style2">
   <![CDATA[
    .fil0 {fill:#66BB6A}
    .fil1 {fill:#FFFFFE;fill-rule:nonzero}
   ]]>
  </style>
 </defs>
 <g
   id="Layer_x0020_1"
   inkscape:label="Layer 1">
  <metadata
   id="CorelCorpID_0Corel-Layer" />
  
  <path
   class="fil1"
   d="m 1206.1609,565.99911 c 60.1455,25.40296 114.035,62.42143 158.9022,108.23006 44.9174,45.86094 81.2162,100.92995 106.1281,162.37418 23.9385,59.04632 37.1505,123.56768 37.1505,190.99405 0,67.428 -13.2121,131.949 -37.1505,190.9955 -24.9119,61.4443 -61.2107,116.5133 -106.1281,162.374 -44.8677,45.8087 -98.757,82.8273 -158.9022,108.2302 -57.8014,24.4105 -120.9727,37.8863 -186.9995,37.8863 -66.02852,0 -129.19979,-13.4757 -187.0008,-37.8863 -60.1455,-25.4029 -114.03793,-62.4231 -158.90217,-108.2302 -44.91583,-45.8609 -81.21623,-100.9298 -106.12813,-162.374 -23.93699,-59.0464 -37.15048,-123.5678 -37.15048,-190.9955 0,-138.05163 54.75601,-262.98606 143.27899,-353.36823 44.86463,-45.80707 98.75706,-82.8271 158.9022,-108.23006 57.80143,-24.41056 120.9727,-37.88639 187.00089,-37.88639 66.027,0 129.1984,13.47571 186.9994,37.88639 z"
   id="path9"
   style="fill:#333333;stroke-width:1.28722" />
  <polygon
   class="fil1"
   points="256.001,1058.91 256.001,989.092 570.182,989.092 570.182,1058.91 "
   id="polygon11"
   style="fill:#333333"
   transform="matrix(1.2739081,0,0,1.3006686,-285.31791,-304.25747)" />
  <polygon
   class="fil1"
   points="1058.91,1792 989.092,1792 989.092,1477.82 1058.91,1477.82 "
   id="polygon13"
   style="fill:#333333"
   transform="matrix(1.2739081,0,0,1.3006686,-285.31791,-304.25747)" />
  <polygon
   class="fil1"
   points="505.629,1591.74 456.259,1542.37 678.419,1320.21 727.789,1369.58 "
   id="polygon15"
   style="fill:#333333"
   transform="matrix(1.2739081,0,0,1.3006686,-285.31791,-304.25747)" />
  <polygon
   class="fil1"
   points="456.255,505.629 505.626,456.259 727.785,678.419 678.415,727.789 "
   id="polygon17"
   style="fill:#333333"
   transform="matrix(1.2739081,0,0,1.3006686,-285.31791,-304.25747)" />
  <polygon
   class="fil1"
   points="1477.82,1058.91 1477.82,989.089 1792,989.089 1792,1058.91 "
   id="polygon19"
   style="fill:#333333"
   transform="matrix(1.2739081,0,0,1.3006686,-285.31791,-304.25747)" />
  <polygon
   class="fil1"
   points="1058.91,570.18 989.089,570.18 989.089,255.998 1058.91,255.998 "
   id="polygon21"
   style="fill:#333333"
   transform="matrix(1.2739081,0,0,1.3006686,-285.31791,-304.25747)" />
  <polygon
   class="fil1"
   points="1369.58,727.785 1320.21,678.415 1542.37,456.254 1591.74,505.624 "
   id="polygon23"
   style="fill:#333333"
   transform="matrix(1.2739081,0,0,1.3006686,-285.31791,-304.25747)" />
  <polygon
   class="fil1"
   points="1320.21,1369.58 1369.58,1320.21 1591.75,1542.37 1542.38,1591.74 "
   id="polygon25"
   style="fill:#333333"
   transform="matrix(1.2739081,0,0,1.3006686,-285.31791,-304.25747)" />
 </g>
</svg>
