<?xml version="1.0" encoding="UTF-8" standalone="no"?>
<svg
   id="body_1"
   width="200"
   height="110"
   version="1.1"
   sodipodi:docname="cloudy.svg"
   inkscape:version="1.2 (dc2aedaf03, 2022-05-15)"
   xmlns:inkscape="http://www.inkscape.org/namespaces/inkscape"
   xmlns:sodipodi="http://sodipodi.sourceforge.net/DTD/sodipodi-0.dtd"
   xmlns="http://www.w3.org/2000/svg"
   xmlns:svg="http://www.w3.org/2000/svg">
  <defs
     id="defs395" />
  <sodipodi:namedview
     id="namedview393"
     pagecolor="#505050"
     bordercolor="#eeeeee"
     borderopacity="1"
     inkscape:showpageshadow="0"
     inkscape:pageopacity="0"
     inkscape:pagecheckerboard="0"
     inkscape:deskcolor="#505050"
     showgrid="false"
     inkscape:zoom="4.0117187"
     inkscape:cx="159.90652"
     inkscape:cy="113.41772"
     inkscape:window-width="2560"
     inkscape:window-height="1387"
     inkscape:window-x="-8"
     inkscape:window-y="-8"
     inkscape:window-maximized="1"
     inkscape:current-layer="body_1" />
  <g
     id="g390"
     transform="matrix(0.1282568,0,0,0.12874365,-31.377799,-78.240507)">
    <g
       id="g380">
      <path
         d="m 1076.92,639.999 c 70.9229,0 136.312,23.4709 188.5041,62.91744 2.1095,1.59446 4.1953,3.21613 6.2609,4.86261 -20.5783,7.46575 -40.4752,16.96302 -59.4141,28.42798 -34.7021,21.00592 -65.3457,48.18311 -90.2327,80.08002 -3.9354,-1.41375 -7.9052,-2.73185 -11.9055,-3.95081 -24.4855,-7.45984 -49.937,-11.23108 -75.5327,-11.23108 -62.96584,0 -123.482,22.72684 -170.68405,64.4292 -31.8012,28.09729 -56.05041,63.6178 -70.34301,103.33504 -61.09614,4.0713 -118.78699,29.5748 -162.87204,72.6993 -48.2103,47.1591 -75.51615,110.9781 -75.51615,178.575 0,58.2213 20.27255,113.66 56.76032,158.1009 v 0 h -136.534 c -23.71301,0 -19.14691,-0.9177 -41.81109,-6.1866 -42.90588,-9.9804 -81.14301,-31.7859 -110.90302,-61.7044 -40.45279,-40.6654 -65.36578,-96.1926 -65.36578,-157.406 0,-62.3338 25.8071,-118.743 67.52249,-159.552 41.52289,-40.61575 98.72128,-65.74014 161.75101,-65.74014 2.18975,0 4.39959,0.0342 6.62835,0.10154 11.1413,-44.576 35.76617,-83.9127 69.38861,-113.617 40.66663,-35.9303 94.39972,-57.8067 153.19406,-57.8067 23.5418,0 46.3347,3.5315 67.8449,10.0854 11.4437,3.4854 22.5272,7.84845 33.1666,13.0063 25.0559,-38.16383 58.6075,-70.4682 98.0363,-94.3347 47.2229,-28.58743 102.752,-45.09103 162.057,-45.09103 v 0 z"
         stroke="none"
         fill="#fffffe"
         fill-rule="nonzero"
         id="path376" />
      <path
         d="m 1386.99,719.579 c 69.2103,0 133.022,22.904 183.953,61.3985 49.2342,37.213 86.4402,89.03745 104.907,148.906 33.9355,25.213 62.0445,57.6449 81.9603,94.9889 20.9929,39.3592 32.8618,84.0485 32.8618,131.371 0,78.4738 -32.4933,149.497 -85.0263,200.887 -44.9328,43.9536 -103.0551,79.1327 -169.641,82.8697 v 0 h -736.001 c -23.1402,0 -18.68514,-0.8952 -40.8012,-6.0378 -41.87014,-9.7394 -79.1847,-31.0181 -108.22604,-60.2138 -39.47601,-39.6838 -63.78776,-93.8705 -63.78776,-153.6059 0,-60.828 25.18345,-115.876 65.89256,-155.699 40.52008,-39.6355 96.33789,-64.1528 157.84504,-64.1528 2.1366,0 4.2933,0.033 6.46886,0.099 10.87207,-43.5 34.90284,-81.8871 67.71274,-110.875 39.6851,-35.0622 92.12125,-56.4107 149.496,-56.4107 22.9736,0 45.2162,3.4465 66.2067,9.8421 11.1673,3.40156 21.9826,7.6583 32.3658,12.6921 24.4512,-37.2425 57.1926,-68.7674 95.6695,-92.0576 46.0831,-27.8965 100.271,-44.00204 158.144,-44.00204 v 0 z"
         stroke="none"
         fill="#fffffe"
         fill-rule="nonzero"
         id="path378" />
    </g>
    <g
       id="g388">
      <path
         d="M 0,256.001 C 0,114.61556 114.61556,0 256.001,0 V 0 H 1791.999 C 1933.3844,0 2048,114.61556 2048,256.001 v 0 1535.998 C 2048,1933.3844 1933.3844,2048 1791.999,2048 v 0 H 256.001 C 114.61556,2048 0,1933.3844 0,1791.999 v 0 z"
         stroke="none"
         fill="#424242"
         fill-rule="nonzero"
         id="path382"
         inkscape:label="path382"
         style="fill:none" />
      <path
         d="m 1076.92,639.999 c 70.9229,0 136.312,23.4709 188.5041,62.91744 2.1095,1.59446 4.1953,3.21613 6.2609,4.86261 -20.5783,7.46575 -40.4752,16.96302 -59.4141,28.42798 -34.7021,21.00592 -65.3457,48.18311 -90.2327,80.08002 -3.9354,-1.41375 -7.9052,-2.73185 -11.9055,-3.95081 -24.4855,-7.45984 -49.937,-11.23108 -75.5327,-11.23108 -62.96584,0 -123.482,22.72684 -170.68405,64.4292 -31.8012,28.09729 -56.05041,63.6178 -70.34301,103.33504 -61.09614,4.0713 -118.78699,29.5748 -162.87204,72.6993 -48.2103,47.1591 -75.51615,110.9781 -75.51615,178.575 0,58.2213 20.27255,113.66 56.76032,158.1009 v 0 h -136.534 c -23.71301,0 -19.14691,-0.9177 -41.81109,-6.1866 -42.90588,-9.9804 -81.14301,-31.7859 -110.90302,-61.7044 -40.45279,-40.6654 -65.36578,-96.1926 -65.36578,-157.406 0,-62.3338 25.8071,-118.743 67.52249,-159.552 41.52289,-40.61575 98.72128,-65.74014 161.75101,-65.74014 2.18975,0 4.39959,0.0342 6.62835,0.10154 11.1413,-44.576 35.76617,-83.9127 69.38861,-113.617 40.66663,-35.9303 94.39972,-57.8067 153.19406,-57.8067 23.5418,0 46.3347,3.5315 67.8449,10.0854 11.4437,3.4854 22.5272,7.84845 33.1666,13.0063 25.0559,-38.16383 58.6075,-70.4682 98.0363,-94.3347 47.2229,-28.58743 102.752,-45.09103 162.057,-45.09103 v 0 z"
         stroke="none"
         fill="#FFFFFE"
         fill-rule="nonzero"
         id="path384"
         style="fill:#333333" />
      <path
         d="m 1386.99,719.579 c 69.2103,0 133.022,22.904 183.953,61.3985 49.2342,37.213 86.4402,89.03745 104.907,148.906 33.9355,25.213 62.0445,57.6449 81.9603,94.9889 20.9929,39.3592 32.8618,84.0485 32.8618,131.371 0,78.4738 -32.4933,149.497 -85.0263,200.887 -44.9328,43.9536 -103.0551,79.1327 -169.641,82.8697 v 0 h -736.001 c -23.1402,0 -18.68514,-0.8952 -40.8012,-6.0378 -41.87014,-9.7394 -79.1847,-31.0181 -108.22604,-60.2138 -39.47601,-39.6838 -63.78776,-93.8705 -63.78776,-153.6059 0,-60.828 25.18345,-115.876 65.89256,-155.699 40.52008,-39.6355 96.33789,-64.1528 157.84504,-64.1528 2.1366,0 4.2933,0.033 6.46886,0.099 10.87207,-43.5 34.90284,-81.8871 67.71274,-110.875 39.6851,-35.0622 92.12125,-56.4107 149.496,-56.4107 22.9736,0 45.2162,3.4465 66.2067,9.8421 11.1673,3.40156 21.9826,7.6583 32.3658,12.6921 24.4512,-37.2425 57.1926,-68.7674 95.6695,-92.0576 46.0831,-27.8965 100.271,-44.00204 158.144,-44.00204 v 0 z"
         stroke="none"
         fill="#FFFFFE"
         fill-rule="nonzero"
         id="path386"
         style="fill:#333333" />
    </g>
  </g>
</svg>
