<?xml version="1.0" encoding="UTF-8" standalone="no"?>
<!-- Creator: CorelDRAW -->

<svg
   xml:space="preserve"
   width="1578"
   height="1400"
   style="clip-rule:evenodd;fill-rule:evenodd;image-rendering:optimizeQuality;shape-rendering:geometricPrecision;text-rendering:geometricPrecision"
   viewBox="0 0 1578 1400"
   version="1.1"
   id="svg28"
   sodipodi:docname="few clouds.svg"
   inkscape:version="1.2 (dc2aedaf03, 2022-05-15)"
   xmlns:inkscape="http://www.inkscape.org/namespaces/inkscape"
   xmlns:sodipodi="http://sodipodi.sourceforge.net/DTD/sodipodi-0.dtd"
   xmlns="http://www.w3.org/2000/svg"
   xmlns:svg="http://www.w3.org/2000/svg"><sodipodi:namedview
   id="namedview30"
   pagecolor="#505050"
   bordercolor="#eeeeee"
   borderopacity="1"
   inkscape:showpageshadow="0"
   inkscape:pageopacity="0"
   inkscape:pagecheckerboard="0"
   inkscape:deskcolor="#505050"
   showgrid="false"
   inkscape:zoom="0.50146484"
   inkscape:cx="903.35346"
   inkscape:cy="1023.0029"
   inkscape:window-width="2560"
   inkscape:window-height="1387"
   inkscape:window-x="-8"
   inkscape:window-y="-8"
   inkscape:window-maximized="1"
   inkscape:current-layer="Layer_x0020_1" />
 <defs
   id="defs4">
  <style
   type="text/css"
   id="style2">
   <![CDATA[
    .fil0 {fill:none}
    .fil1 {fill:#42A5F5}
    .fil2 {fill:#FFFFFE;fill-rule:nonzero}
   ]]>
  </style>
 </defs>
 <g
   id="Layer_x0020_1"
   inkscape:label="Layer 1"
   inkscape:groupmode="layer">
  <metadata
   id="CorelCorpID_0Corel-Layer" />
  <rect
   class="fil0"
   width="2048"
   height="2048"
   id="rect7"
   x="-235.31061"
   y="-327.04187" />
  
  <path
   class="fil2"
   d="m 1077.8094,473.62613 c 82.0442,0 158.081,29.5925 219.01,78.3367 60.0213,48.0178 105.311,114.658 127.179,189.931 40.7481,30.9544 73.1776,69.7312 95.804,114.796 23.8134,47.4307 36.587,101.453 36.587,160.24897 0,97.382 -37.1032,186.158 -98.3351,250.335 -60.2552,63.1524 -143.727,102.354 -238.041,102.354 H 489.24029 c -16.9512,0 -23.3292,0.1028 -30.1087,0.2091 -48.7819,0.7724 -108.536,1.7185 -151.14,-10.7976 -55.5662,-16.324 -102.971,-50.6174 -136.335,-96.3804 -32.8949,-45.1193 -52.1445,-101.277 -52.1445,-162.273 0,-14.6646 1.24134,-29.1024 3.60709,-43.2307 11.3728,-67.90751 48.8575,-126.74801 99.6875,-168.47301 50.3894,-41.3658 114.086,-66.0473 178.428,-66.0473 3.52323,0 7.07835,0.0791 10.6642,0.24212 7.95591,-41.4614 23.2843,-80.3953 45.1276,-113.646 26.6067,-40.5048 62.7922,-72.6319 107.078,-90.9036 42.3863,-17.4768 86.8512,-20.0776 128.932,-10.3654 31.4055,7.24843 61.5,21.3721 88.3902,41.2807 29.2016,-47.6847 67.8461,-89.0552 113.733,-119.646 52.6335,-35.0882 114.61802,-55.9713 182.65102,-55.9713 z"
   id="path11"
   style="fill:#333333" />
  <polygon
   class="fil2"
   points="256.302,862.303 256.423,798.723 480.541,799.142 480.42,862.723 "
   id="polygon13"
   style="fill:#333333"
   transform="translate(-235.31061,-327.04187)" />
  <polygon
   class="fil2"
   points="704.541,350.725 768.512,350.724 768.513,574.595 704.541,574.724 "
   id="polygon15"
   style="fill:#333333"
   transform="translate(-235.31061,-327.04187)" />
  <polygon
   class="fil2"
   points="390.095,518.489 434.45,475.46 583.255,628.851 539.814,672.824 "
   id="polygon17"
   style="fill:#333333"
   transform="translate(-235.31061,-327.04187)" />
  <polygon
   class="fil2"
   points="1065.43,470.608 1110.04,513.371 961.244,668.594 917.351,625.081 "
   id="polygon19"
   style="fill:#333333"
   transform="translate(-235.31061,-327.04187)" />
  <path
   class="fil2"
   d="m 404.35039,737.34813 c -1.72323,-0.88346 -3.15473,-1.62047 -3.44173,-1.78228 -25.7162,-14.4791 -48.5398,-33.6071 -67.3571,-56.2666 -35.1437,-42.3201 -56.328,-96.8694 -56.328,-156.31 0,-66.9154 26.7744,-127.579 70.056,-171.567 43.5059,-44.217 103.586,-71.5666 169.921,-71.5666 66.3319,0 126.412,27.3496 169.916,71.5666 43.2803,43.9878 70.0501,104.652 70.0501,171.567 0,24.5693 -3.63071,48.3355 -10.3795,70.7776 -15.0437,-6.56103 -30.6898,-11.7662 -46.7693,-15.4453 -6.60001,-1.48347 -10.1516,-2.21339 -13.7079,-2.86654 0.23267,-0.79016 0.46181,-1.58268 0.68386,-2.37756 -45.7016,-7.97481 -92.2182,-3.10158 -135.474,14.7402 -47.68,19.6654 -86.9918,53.1804 -116.472,95.0528 l 0.3,0.15945 c -1.61929,2.30551 -3.2126,4.63111 -4.77166,6.98386 -9.26812,13.9854 -17.3622,28.7162 -26.2252,47.3339 z"
   id="path21"
   style="fill:#333333" />
  <path
   class="fil2"
   d="m 834.97939,535.35513 h -45.9071 v -63.6745 h 145.416 c -19.7351,8.61024 -38.8111,19.0134 -57.0792,31.1303 -14.8961,9.87993 -29.0575,20.7744 -42.43,32.5441 z"
   id="path23"
   style="fill:#333333" />
  <path
   class="fil2"
   d="m 143.97939,840.46813 148.083,-153.685 44.6103,42.5457 -114.848,119.195 c -13.4386,9.17245 -26.178,19.5024 -38.0611,30.9461 l -0.12048,0.11693 -39.6638,-39.1181 z"
   id="path25"
   style="fill:#333333" />
 </g>
</svg>
