<?xml version="1.0" encoding="UTF-8" standalone="no"?>
<!-- Creator: CorelDRAW -->

<svg
   xml:space="preserve"
   width="1600"
   height="1200"
   style="clip-rule:evenodd;fill-rule:evenodd;image-rendering:optimizeQuality;shape-rendering:geometricPrecision;text-rendering:geometricPrecision"
   viewBox="0 0 1600 1200"
   version="1.1"
   id="svg1111"
   sodipodi:docname="shower rain.svg"
   inkscape:version="1.2 (dc2aedaf03, 2022-05-15)"
   xmlns:inkscape="http://www.inkscape.org/namespaces/inkscape"
   xmlns:sodipodi="http://sodipodi.sourceforge.net/DTD/sodipodi-0.dtd"
   xmlns="http://www.w3.org/2000/svg"
   xmlns:svg="http://www.w3.org/2000/svg"><sodipodi:namedview
   id="namedview1113"
   pagecolor="#505050"
   bordercolor="#eeeeee"
   borderopacity="1"
   inkscape:showpageshadow="0"
   inkscape:pageopacity="0"
   inkscape:pagecheckerboard="0"
   inkscape:deskcolor="#505050"
   showgrid="false"
   inkscape:zoom="0.50146484"
   inkscape:cx="806.63681"
   inkscape:cy="1024.9971"
   inkscape:window-width="2560"
   inkscape:window-height="1387"
   inkscape:window-x="-8"
   inkscape:window-y="-8"
   inkscape:window-maximized="1"
   inkscape:current-layer="Layer_x0020_1" />
 <defs
   id="defs1095">
  <style
   type="text/css"
   id="style1093">
   <![CDATA[
    .fil0 {fill:#607D8B}
    .fil1 {fill:#FFFFFE;fill-rule:nonzero}
   ]]>
  </style>
 </defs>
 <g
   id="Layer_x0020_1"
   inkscape:label="Layer 1"
   inkscape:groupmode="layer">
  <metadata
   id="CorelCorpID_0Corel-Layer" />
  
  <path
   class="fil1"
   d="m 737.56968,891.27467 c 5.1001,-2.20019 10.79551,-3.39182 16.65797,-3.34939 5.92747,-0.0413 11.50375,1.16495 16.51369,3.33485 4.83674,2.09474 9.33315,5.20653 13.209,9.00445 l 10e-4,-10e-4 c 1.55854,1.52377 2.96674,3.03663 4.18976,4.60768 1.14244,1.46558 2.30653,3.21241 3.52954,5.36776 l 0.036,-0.0219 57.98918,98.81988 0.12748,0.2558 4.99427,8.6808 0.76363,1.4122 c 3.96248,7.7352 7.09036,16.0063 9.23454,24.698 2.02273,8.191 3.1327,16.9239 3.19643,26.1042 v 0.1285 c -0.0433,15.3625 -3.16636,30.0014 -8.75832,43.296 -5.85532,13.92 -14.32024,26.3587 -24.71164,36.6239 l -1.27232,1.2826 -0.0805,0.072 -0.0217,-0.025 c -10.27115,9.8348 -22.31373,17.7446 -35.55276,23.1826 -13.13814,5.3969 -27.69886,8.3996 -43.11934,8.4676 h -0.12747 c -15.3604,0.018 -29.9476,-2.9434 -43.19997,-8.3257 -13.94138,-5.6611 -26.47217,-13.9601 -36.94899,-24.2628 -10.54779,-10.3877 -19.06677,-22.8627 -24.92332,-36.7936 -5.61119,-13.3442 -8.70661,-27.9965 -8.71744,-43.3845 -0.0253,-9.1778 1.04985,-17.9641 3.09302,-26.3018 2.18628,-8.9207 5.34542,-17.267 9.33075,-24.9816 l 0.76363,-1.1552 4.79104,-8.3911 0.12748,-0.3843 57.85092,-98.92042 0.0565,0.034 c 1.128,-1.98805 2.36545,-3.79064 3.63416,-5.41018 1.89165,-2.4087 3.15795,-3.85368 4.00215,-4.68526 l 0.0481,0.0497 c 3.80013,-3.82458 8.35907,-6.90729 13.2932,-9.02869 z"
   id="path1100"
   style="stroke-width:1.02226;fill:#333333" />
  <path
   class="fil1"
   d="m 1355.9863,891.27467 c 5.1,-2.20019 10.7955,-3.39182 16.6579,-3.34939 5.9274,-0.0413 11.5038,1.16495 16.5137,3.33485 4.8355,2.09353 9.3331,5.20653 13.209,9.00445 v -10e-4 c 1.5585,1.52377 2.9656,3.03542 4.1897,4.60768 1.1425,1.46558 2.3041,3.2112 3.5284,5.36776 l 0.038,-0.0219 57.9892,98.81988 0.1274,0.2558 4.9943,8.6808 0.7636,1.4122 c 3.9625,7.7352 7.0904,16.0063 9.2346,24.698 2.0227,8.191 3.1327,16.9239 3.1964,26.1042 v 0.1285 c -0.044,15.3625 -3.1664,30.0014 -8.7583,43.296 -5.8554,13.92 -14.319,26.3587 -24.7117,36.6239 l -1.2723,1.2826 -0.08,0.072 -0.021,-0.025 c -10.2711,9.8348 -22.3137,17.7446 -35.5528,23.1826 -13.1381,5.3969 -27.6976,8.3996 -43.1193,8.4676 h -0.1275 c -15.3604,0.018 -29.9476,-2.9434 -43.1999,-8.3257 -13.9414,-5.6611 -26.4722,-13.9601 -36.949,-24.2628 -10.5478,-10.3877 -19.0668,-22.8627 -24.9234,-36.7936 -5.6111,-13.3442 -8.7066,-27.9965 -8.7174,-43.3845 -0.025,-9.1778 1.0499,-17.9641 3.093,-26.3018 2.1863,-8.9207 5.3455,-17.267 9.3308,-24.9816 l 0.7636,-1.1552 4.7911,-8.3911 0.1274,-0.3843 57.851,-98.92042 0.056,0.034 c 1.128,-1.98805 2.3654,-3.79064 3.6341,-5.41018 1.8917,-2.4087 3.158,-3.85368 4.0022,-4.68526 l 0.048,0.0497 c 3.8002,-3.82458 8.3592,-6.90729 13.2932,-9.02869 z"
   id="path1102"
   style="stroke-width:1.02226;fill:#333333" />
  <path
   class="fil1"
   d="m 1044.6179,563.10404 c 5.7411,-2.41961 12.1231,-3.7264 18.6748,-3.66094 17.7102,-0.18062 33.8595,10.04575 42.844,25.12711 30.6667,52.02405 62.298,103.91735 93.3748,155.80161 l 0.1274,0.25699 8.0116,13.64487 0.7636,1.41103 c 5.7868,11.06163 10.3024,22.693 13.3305,34.70976 2.903,11.5235 4.4952,23.85915 4.5878,36.8882 v 0.1285 c -0.062,21.60558 -4.5674,42.24618 -12.6391,61.0455 -8.3939,19.55082 -20.541,37.03241 -35.465,51.47619 l -0.2886,0.26426 c -14.8962,14.37943 -32.7232,25.98534 -52.574,33.97397 -18.9934,7.64312 -39.8063,11.89442 -61.6162,11.98772 h -0.1274 c -21.9866,0.0254 -42.8356,-4.11188 -61.7459,-11.63619 -19.93745,-7.93284 -37.87618,-19.5775 -52.89509,-34.04787 l -0.12747,-0.12729 c -15.04293,-14.51521 -27.21054,-31.98838 -35.60326,-51.54156 -8.09331,-18.85864 -12.55727,-39.52111 -12.57173,-61.18611 -0.0385,-12.9527 1.49961,-25.30651 4.42306,-36.99238 3.10985,-12.43264 7.67481,-24.20092 13.48197,-35.21411 l 0.76363,-1.15404 7.68683,-13.18907 0.12747,-0.25699 92.65809,-155.21967 c 5.8012,-9.69299 14.3383,-18.07071 24.7982,-22.48927 z"
   id="path1104"
   style="stroke-width:1.02226;fill:#333333" />
  <path
   class="fil1"
   d="m 1386.5723,778.39622 h -134.275 c -3.651,-13.34178 -8.6971,-26.27877 -15.2775,-38.43737 l -1.0366,-1.91533 -7.7145,-13.13938 -0.1912,-0.38671 -7.0735,-11.80954 h 1.0162 c -26.3904,-50.15599 -59.0498,-96.27779 -87.9091,-144.97768 -14.8662,-25.08595 -41.6932,-41.12982 -70.8182,-41.12735 -10.6956,0.001 -21.3745,2.04018 -31.2512,6.20783 -16.8817,7.12306 -30.7485,20.12783 -40.13456,35.85168 l -85.98862,144.04575 -7.32606,12.27263 -0.20323,0.41217 -6.65863,11.42404 -0.24773,0.37458 c -8.42642,12.73449 -13.08753,26.64364 -16.89612,41.20494 h -36.67836 c -54.5895,0 -104.06469,-22.35718 -139.88616,-58.46709 -35.82095,-36.11115 -57.99875,-85.98355 -57.99875,-141.01493 0,-51.11614 19.07155,-98.03069 50.7581,-133.52972 27.2527,-30.53127 63.89135,-52.56227 105.79152,-61.49402 4.62268,-47.13758 25.56069,-89.4905 57.03434,-121.2186 35.8234,-36.11351 85.29951,-58.47315 139.88921,-58.47315 37.34945,0 72.93835,10.50032 103.45985,29.4305 25.2744,15.67531 47.041,37.12334 63.4188,63.16205 3.0738,-0.59036 6.1573,-1.11282 9.2466,-1.56014 9.308,-1.35042 18.4522,-2.06322 27.3525,-2.06322 35.8571,0 70.3937,9.89059 100.3713,27.76125 24.9209,14.85463 46.6755,35.34743 63.3815,60.36061 9.1047,-1.27163 17.9797,-1.88744 26.5936,-1.88744 46.9556,0 90.2686,16.87911 124.2837,44.9265 33.8331,27.89703 58.4618,67.04485 68.2578,111.74535 3.1111,14.19766 4.7538,28.54805 4.7538,42.83901 0,54.95891 -22.232,104.84414 -58.1635,141.03237 -35.845,36.10027 -85.308,58.45016 -139.878,58.45016 z"
   id="path1106"
   style="stroke-width:1.02226;fill:#333333" />
  <path
   class="fil1"
   d="M 633.1079,685.48037 H 248.73431 c -62.80546,0 -119.81689,-25.84956 -161.174179,-67.5685 -41.296295,-41.65705 -66.871344,-99.13135 -66.871344,-162.44725 0,-16.54935 1.889235,-33.0987 5.46568,-49.41537 11.295744,-51.51858 39.696842,-96.62572 78.702243,-128.77873 39.19183,-32.30717 89.08285,-51.7416 143.1433,-51.7416 11.04558,0 22.4352,0.87038 34.11571,2.67296 19.49725,-30.07782 45.42469,-54.75528 75.37474,-72.57012 l -0.0325,-0.0557 c 34.56555,-20.54002 74.37663,-31.92167 115.74623,-31.92167 10.37939,0 21.04498,0.78794 31.93305,2.36627 4.61667,0.66793 9.27903,1.50074 13.98352,2.49719 19.11371,-31.610078 45.02669,-57.564013 75.31457,-76.32926 35.18123,-21.797097 76.20934,-33.892785 119.28948,-33.892785 62.75129,0 119.78533,25.864129 161.16603,67.602469 25.76504,25.990276 45.41868,58.133736 56.55814,94.010876 -21.19771,5.97023 -41.43334,14.98806 -60.12013,26.79267 -14.63648,9.24205 -28.31934,20.19938 -40.7647,32.74594 -32.21804,32.47806 -54.07115,73.57513 -63.00513,118.24012 -38.74322,12.4387 -73.60098,35.02978 -101.00151,65.72712 -38.18883,42.78327 -59.11957,97.94581 -59.11957,155.49781 0,13.82304 1.21219,27.49336 3.57885,40.88 h 0.004 c 4.06109,22.9657 11.51822,45.08887 22.08882,65.68832 z"
   id="path1108"
   style="stroke-width:1.02226;fill:#333333" />
 </g>
</svg>
