<?xml version="1.0" encoding="UTF-8" standalone="no"?>
<!-- Uploaded to: SVG Repo, www.svgrepo.com, Generator: SVG Repo Mixer Tools -->

<svg
   fill="#000000"
   height="600"
   width="600"
   version="1.1"
   id="Layer_1"
   viewBox="0 0 357.2355 357.2355"
   xml:space="preserve"
   sodipodi:docname="mist.svg"
   inkscape:version="1.2 (dc2aedaf03, 2022-05-15)"
   xmlns:inkscape="http://www.inkscape.org/namespaces/inkscape"
   xmlns:sodipodi="http://sodipodi.sourceforge.net/DTD/sodipodi-0.dtd"
   xmlns="http://www.w3.org/2000/svg"
   xmlns:svg="http://www.w3.org/2000/svg"><defs
   id="defs21" /><sodipodi:namedview
   id="namedview19"
   pagecolor="#505050"
   bordercolor="#eeeeee"
   borderopacity="1"
   inkscape:showpageshadow="0"
   inkscape:pageopacity="0"
   inkscape:pagecheckerboard="0"
   inkscape:deskcolor="#505050"
   showgrid="false"
   inkscape:zoom="1.28375"
   inkscape:cx="357.15677"
   inkscape:cy="399.61052"
   inkscape:window-width="2560"
   inkscape:window-height="1387"
   inkscape:window-x="-8"
   inkscape:window-y="-8"
   inkscape:window-maximized="1"
   inkscape:current-layer="Layer_1" />
<g
   transform="matrix(0.72151916,0,0,0.96744865,6.4930927,-574.61544)"
   id="g16"
   style="fill:#333333">
	<g
   id="g14"
   style="fill:#333333">
		<g
   id="g12"
   style="fill:#333333">
			<path
   d="m 472.733,706.417 c -3.5,-2.9 -34.8,-28.5 -56.8,-28.5 -13,0 -23,8.1 -31.9,15.3 -6.9,5.5 -13.4,10.8 -19.4,10.8 -5.4,0 -11.6,-5.1 -18.2,-10.5 -8.9,-7.3 -19,-15.6 -32.2,-15.6 -13.1,0 -22.9,8.2 -31.6,15.4 -6.7,5.6 -12.9,10.8 -18.8,10.8 -6.1,0 -12.6,-5.3 -19.5,-11 -8.6,-7.1 -18.4,-15.1 -30.9,-15.1 -13,0 -23,8.1 -31.9,15.3 -6.9,5.5 -13.4,10.8 -19.4,10.8 -5.9,0 -12.2,-5.3 -18.8,-10.8 -8.7,-7.2 -18.5,-15.4 -31.6,-15.4 -13.1,0 -22.9,8.2 -31.6,15.4 -6.7,5.6 -12.9,10.8 -18.8,10.8 -10.6,0 -32.7,-14 -45,-23.9 -4.3,-3.5 -10.6,-2.8 -14.1,1.5 -3.5,4.3 -2.8,10.6 1.5,14.1 3.6,2.9 35.7,28.4 57.6,28.4 13.1,0 22.9,-8.2 31.6,-15.4 6.7,-5.6 12.9,-10.8 18.8,-10.8 5.9,0 12.2,5.3 18.8,10.8 8.7,7.2 18.5,15.4 31.6,15.4 13,0 23,-8.1 31.9,-15.3 6.9,-5.5 13.4,-10.8 19.4,-10.8 5.4,0 11.6,5.1 18.2,10.5 8.9,7.3 19,15.6 32.2,15.6 13.1,0 22.9,-8.2 31.6,-15.4 6.7,-5.6 12.9,-10.8 18.8,-10.8 6.1,0 12.6,5.3 19.5,11 8.6,7.1 18.4,15.1 30.9,15.1 13,0 23,-8.1 31.9,-15.3 6.9,-5.5 13.4,-10.8 19.4,-10.8 10.5,0 32,13.9 43.9,23.8 1.9,1.5 4.1,2.3 6.4,2.3 v 0 c 2.9,0 5.7,-1.2 7.8,-3.6 3.5,-4.3 2.9,-10.6 -1.3,-14.1 z"
   id="path2"
   style="fill:#333333" />
			<path
   d="m 3.733,618.317 c 3.6,2.9 35.7,28.4 57.6,28.4 13.1,0 22.9,-8.2 31.6,-15.4 6.7,-5.6 12.9,-10.8 18.8,-10.8 5.9,0 12.2,5.3 18.8,10.8 8.7,7.2 18.5,15.4 31.6,15.4 13,0 23,-8.1 31.9,-15.3 6.9,-5.5 13.4,-10.8 19.4,-10.8 5.4,0 11.6,5.1 18.2,10.5 8.9,7.3 19,15.6 32.2,15.6 13.1,0 22.9,-8.2 31.6,-15.4 6.7,-5.6 12.9,-10.8 18.8,-10.8 6.1,0 12.6,5.3 19.5,11 8.6,7.1 18.4,15.1 30.9,15.1 13,0 23,-8.1 31.9,-15.3 6.9,-5.5 13.4,-10.8 19.4,-10.8 10.5,0 32,13.9 43.9,23.8 1.9,1.5 4.1,2.3 6.4,2.3 v 0 c 2.9,0 5.7,-1.2 7.8,-3.6 3.5,-4.3 2.9,-10.6 -1.3,-14.1 -3.5,-3 -34.8,-28.5 -56.8,-28.5 -13,0 -23,8.1 -31.9,15.3 -6.9,5.5 -13.4,10.8 -19.4,10.8 -5.4,0 -11.6,-5.1 -18.2,-10.5 -8.9,-7.3 -19,-15.6 -32.2,-15.6 -13.1,0 -22.9,8.2 -31.6,15.4 -6.7,5.6 -12.9,10.8 -18.8,10.8 -6.1,0 -12.6,-5.3 -19.5,-11 -8.6,-7.1 -18.4,-15.1 -30.9,-15.1 -13,0 -23,8.1 -31.9,15.3 -6.9,5.5 -13.4,10.8 -19.4,10.8 -5.9,0 -12.2,-5.3 -18.8,-10.8 -8.7,-7.2 -18.5,-15.4 -31.6,-15.4 -13.1,0 -22.9,8.2 -31.6,15.4 -6.7,5.6 -12.9,10.8 -18.8,10.8 -10.6,0 -32.7,-14 -45,-23.9 -4.3,-3.5 -10.6,-2.8 -14.1,1.5 -3.5,4.3 -2.8,10.6 1.5,14.1 z"
   id="path4"
   style="fill:#333333" />
			<path
   d="m 472.733,861.317 c -3.5,-2.9 -34.8,-28.5 -56.8,-28.5 -13,0 -23,8.1 -31.9,15.3 -6.9,5.5 -13.4,10.8 -19.4,10.8 -5.4,0 -11.6,-5.1 -18.2,-10.5 -8.9,-7.3 -19,-15.6 -32.2,-15.6 -13.1,0 -22.9,8.2 -31.6,15.4 -6.7,5.6 -12.9,10.8 -18.8,10.8 -6.1,0 -12.6,-5.3 -19.5,-11 -8.6,-7.1 -18.4,-15.1 -30.9,-15.1 -13,0 -23,8.1 -31.9,15.3 -6.9,5.5 -13.4,10.8 -19.4,10.8 -5.9,0 -12.2,-5.3 -18.8,-10.8 -8.7,-7.2 -18.5,-15.4 -31.6,-15.4 -13.1,0 -22.9,8.2 -31.6,15.4 -6.7,5.6 -12.9,10.8 -18.8,10.8 -10.6,0 -32.7,-14 -45,-23.9 -4.3,-3.5 -10.6,-2.8 -14.1,1.5 -3.5,4.3 -2.8,10.6 1.5,14.1 3.6,2.9 35.7,28.4 57.6,28.4 13.1,0 22.9,-8.2 31.6,-15.4 6.7,-5.6 12.9,-10.8 18.8,-10.8 5.9,0 12.2,5.3 18.8,10.8 8.7,7.2 18.5,15.4 31.6,15.4 13,0 23,-8.1 31.9,-15.3 6.9,-5.5 13.4,-10.8 19.4,-10.8 5.4,0 11.6,5.1 18.2,10.5 8.9,7.3 19,15.6 32.2,15.6 13.1,0 22.9,-8.2 31.6,-15.4 6.7,-5.6 12.9,-10.8 18.8,-10.8 6.1,0 12.6,5.3 19.5,11 8.6,7.1 18.4,15.1 30.9,15.1 13,0 23,-8.1 31.9,-15.3 6.9,-5.5 13.4,-10.8 19.4,-10.8 10.5,0 32,13.9 43.9,23.8 1.9,1.5 4.1,2.3 6.4,2.3 v 0 c 2.9,0 5.7,-1.2 7.8,-3.6 3.5,-4.3 2.9,-10.6 -1.3,-14.1 z"
   id="path6"
   style="fill:#333333" />
			<path
   d="m 472.733,783.917 c -3.5,-2.9 -34.8,-28.5 -56.8,-28.5 -13,0 -23,8.1 -31.9,15.3 -6.9,5.5 -13.4,10.8 -19.4,10.8 -5.4,0 -11.6,-5.1 -18.2,-10.5 -8.9,-7.3 -19,-15.6 -32.2,-15.6 -13.1,0 -22.9,8.2 -31.6,15.4 -6.7,5.6 -12.9,10.8 -18.8,10.8 -6.1,0 -12.6,-5.3 -19.5,-11 -8.6,-7.1 -18.4,-15.1 -30.9,-15.1 -13,0 -23,8.1 -31.9,15.3 -6.9,5.5 -13.4,10.8 -19.4,10.8 -5.9,0 -12.2,-5.3 -18.8,-10.8 -8.7,-7.2 -18.5,-15.4 -31.6,-15.4 -13.1,0 -22.9,8.2 -31.6,15.4 -6.7,5.6 -12.9,10.8 -18.8,10.8 -10.6,0 -32.7,-14 -45,-23.9 -4.3,-3.5 -10.6,-2.8 -14.1,1.5 -3.5,4.3 -2.8,10.6 1.5,14.1 3.6,2.9 35.7,28.4 57.6,28.4 13.1,0 22.9,-8.2 31.6,-15.4 6.7,-5.6 12.9,-10.8 18.8,-10.8 5.9,0 12.2,5.3 18.8,10.8 8.7,7.2 18.5,15.4 31.6,15.4 13,0 23,-8.1 31.9,-15.3 6.9,-5.5 13.4,-10.8 19.4,-10.8 5.4,0 11.6,5.1 18.2,10.5 8.9,7.3 19,15.6 32.2,15.6 13.1,0 22.9,-8.2 31.6,-15.4 6.7,-5.6 12.9,-10.8 18.8,-10.8 6.1,0 12.6,5.3 19.5,11 8.6,7.1 18.4,15.1 30.9,15.1 13,0 23,-8.1 31.9,-15.3 6.9,-5.5 13.4,-10.8 19.4,-10.8 10.5,0 32,13.9 43.9,23.8 1.9,1.5 4.1,2.3 6.4,2.3 v 0 c 2.9,0 5.7,-1.3 7.8,-3.6 3.5,-4.3 2.9,-10.6 -1.3,-14.1 z"
   id="path8"
   style="fill:#333333" />
			<path
   d="m 472.733,938.817 c -3.5,-3 -34.8,-28.5 -56.8,-28.5 -13,0 -23,8.1 -31.9,15.3 -6.9,5.5 -13.4,10.8 -19.4,10.8 -5.4,0 -11.6,-5.1 -18.2,-10.5 -8.9,-7.3 -19,-15.6 -32.2,-15.6 -13.1,0 -22.9,8.2 -31.6,15.4 -6.7,5.6 -12.9,10.8 -18.8,10.8 -6.1,0 -12.6,-5.3 -19.5,-11 -8.6,-7.1 -18.4,-15.1 -30.9,-15.1 -13,0 -23,8.1 -31.9,15.3 -6.9,5.5 -13.4,10.8 -19.4,10.8 -5.9,0 -12.2,-5.3 -18.8,-10.8 -8.7,-7.2 -18.5,-15.4 -31.6,-15.4 -13.1,0 -22.9,8.2 -31.6,15.4 -6.7,5.6 -12.9,10.8 -18.8,10.8 -10.6,0 -32.7,-14 -45,-23.9 -4.3,-3.5 -10.6,-2.8 -14.1,1.5 -3.5,4.3 -2.8,10.6 1.5,14.1 3.6,2.9 35.7,28.4 57.6,28.4 13.1,0 22.9,-8.2 31.6,-15.4 6.7,-5.6 12.9,-10.8 18.8,-10.8 5.9,0 12.2,5.3 18.8,10.8 8.7,7.2 18.5,15.4 31.6,15.4 13,0 23,-8.1 31.9,-15.3 6.9,-5.5 13.4,-10.8 19.4,-10.8 5.4,0 11.6,5.1 18.2,10.5 8.9,7.3 19,15.6 32.2,15.6 13.1,0 22.9,-8.2 31.6,-15.4 6.7,-5.6 12.9,-10.8 18.8,-10.8 6.1,0 12.6,5.3 19.5,11 8.6,7.1 18.4,15.1 30.9,15.1 13,0 23,-8.1 31.9,-15.3 6.9,-5.5 13.4,-10.8 19.4,-10.8 10.5,0 32,13.9 43.9,23.8 1.9,1.5 4.1,2.3 6.4,2.3 v 0 c 2.9,0 5.7,-1.2 7.8,-3.6 3.5,-4.3 2.9,-10.6 -1.3,-14.1 z"
   id="path10"
   style="fill:#333333" />
		</g>
	</g>
</g>
</svg>
