<?xml version="1.0" encoding="UTF-8" standalone="no"?>
<!-- Creator: CorelDRAW -->

<svg
   xml:space="preserve"
   width="1570"
   height="1000"
   style="clip-rule:evenodd;fill-rule:evenodd;image-rendering:optimizeQuality;shape-rendering:geometricPrecision;text-rendering:geometricPrecision"
   viewBox="0 0 1570 1000"
   version="1.1"
   id="svg1271"
   sodipodi:docname="rain.svg"
   inkscape:version="1.2 (dc2aedaf03, 2022-05-15)"
   xmlns:inkscape="http://www.inkscape.org/namespaces/inkscape"
   xmlns:sodipodi="http://sodipodi.sourceforge.net/DTD/sodipodi-0.dtd"
   xmlns="http://www.w3.org/2000/svg"
   xmlns:svg="http://www.w3.org/2000/svg"><sodipodi:namedview
   id="namedview1273"
   pagecolor="#505050"
   bordercolor="#eeeeee"
   borderopacity="1"
   inkscape:showpageshadow="0"
   inkscape:pageopacity="0"
   inkscape:pagecheckerboard="0"
   inkscape:deskcolor="#505050"
   showgrid="false"
   inkscape:zoom="0.50146484"
   inkscape:cx="914.32132"
   inkscape:cy="1023.0029"
   inkscape:window-width="2560"
   inkscape:window-height="1387"
   inkscape:window-x="-8"
   inkscape:window-y="-8"
   inkscape:window-maximized="1"
   inkscape:current-layer="Layer_x0020_1" />
 <defs
   id="defs1245">
  <style
   type="text/css"
   id="style1243">
   <![CDATA[
    .fil0 {fill:#FF5722}
    .fil1 {fill:#FFFFFE;fill-rule:nonzero}
   ]]>
  </style>
 </defs>
 <g
   id="Layer_x0020_1"
   inkscape:label="Layer 1"
   inkscape:groupmode="layer">
  <metadata
   id="CorelCorpID_0Corel-Layer" />
  
  <path
   class="fil1"
   d="m 496.08507,20.82588 c 5.00906,-2.14488 10.6028,-3.30473 16.3606,-3.26339 5.82166,-0.04016 11.2973,1.13504 16.2189,3.24922 4.74922,2.03977 9.16536,5.07166 12.9732,8.77324 l 10e-4,-0.0012 c 1.52953,1.47874 2.91142,2.95512 4.11496,4.48937 1.12087,1.42441 2.26654,3.12992 3.46654,5.22993 l 0.0354,-0.02126 56.954,96.2824 0.12519,0.24921 4.90512,8.45788 0.75,1.37599 c 3.89174,7.53662 6.96378,15.5953 9.06969,24.0638 1.98662,7.98071 3.07677,16.4894 3.13937,25.4339 v 0.1252 c -0.0425,14.9669 -3.10984,29.2299 -8.60198,42.1843 -5.75079,13.5626 -14.0634,25.6819 -24.2705,35.6835 l -1.24961,1.24961 -0.0791,0.0697 -0.0213,-0.0236 c -10.0878,9.58229 -21.9154,17.289 -34.9181,22.5874 -12.9036,5.25827 -27.2044,8.18386 -42.3496,8.25001 h -0.1252 c -15.0862,0.0177 -29.413,-2.86772 -42.4288,-8.11182 -13.6925,-5.51575 -25.9996,-13.6016 -36.2894,-23.6398 -10.3595,-10.1209 -18.7264,-22.2756 -24.4784,-35.8488 -5.51103,-13.0016 -8.55119,-27.2788 -8.56182,-42.2705 -0.0248,-8.94213 1.0311,-17.5028 3.0378,-25.6264 2.14725,-8.69174 5.25,-16.8236 9.16418,-24.3402 l 0.75,-1.12559 4.70552,-8.1756 0.1252,-0.37441 56.8182,-96.380397 0.0555,0.03307 c 1.10787,-1.93819 2.32205,-3.69331 3.56929,-5.27126 1.11969,-1.41732 2.14252,-2.58898 3.0626,-3.55748 l -0.007,-0.0071 c 3.90827,-4.16929 8.72717,-7.50945 13.9784,-9.74883 z"
   id="path1250"
   style="fill:#333333" />
  <path
   class="fil1"
   d="m 1104.0811,20.82588 c 5.0114,-2.14488 10.6051,-3.30473 16.3606,-3.26339 5.824,-0.04016 11.2984,1.13504 16.2189,3.24922 4.7516,2.04095 9.1665,5.07284 12.9732,8.77324 v -0.0012 c 1.5295,1.47992 2.9114,2.95512 4.1149,4.48937 1.2508,1.59095 2.4673,3.38268 3.6614,5.47678 l 56.7945,96.0142 0.1252,0.24921 4.9051,8.45788 0.7501,1.37599 c 3.8917,7.53662 6.9637,15.5953 9.0696,24.0638 1.9867,7.98071 3.0768,16.4894 3.1394,25.4339 v 0.1252 c -0.043,14.9669 -3.1098,29.2299 -8.602,42.1843 -5.7508,13.5626 -14.0634,25.6819 -24.2705,35.6835 l -1.2496,1.24961 -0.079,0.0697 -0.021,-0.0236 c -10.0878,9.58229 -21.9142,17.2878 -34.9181,22.5874 -12.9036,5.25827 -27.2032,8.18386 -42.3496,8.25001 h -0.1252 c -15.0851,0.0177 -29.413,-2.86772 -42.4288,-8.11182 -13.6925,-5.51575 -25.9996,-13.6016 -36.2894,-23.6398 -10.3595,-10.1209 -18.7264,-22.2756 -24.4784,-35.8488 -5.511,-13.0016 -8.5512,-27.2788 -8.5618,-42.2705 -0.025,-8.94213 1.0311,-17.5028 3.0378,-25.6264 2.1473,-8.69174 5.25,-16.8236 9.1642,-24.3402 l 0.75,-1.12559 4.7055,-8.1756 0.1252,-0.37441 56.8182,-96.380397 0.015,0.0083 c 1.0618,-1.82126 2.2937,-3.58229 3.6094,-5.24646 1.8614,-2.35748 3.098,-3.75 3.9307,-4.56496 l 0.047,0.04842 c 3.7346,-3.72874 8.2122,-6.72993 13.0559,-8.79686 z"
   id="path1252"
   style="fill:#333333" />
  <path
   class="fil1"
   d="m 158.10807,181.13188 c 5.63859,-2.35748 11.9067,-3.63071 18.3414,-3.56693 6.55985,-0.0661 12.7169,1.22362 18.241,3.54567 v 0.1252 c 5.63741,2.37166 10.7374,5.76851 14.9976,9.8256 l 0.002,-0.002 c 1.65,1.56614 3.25748,3.26811 4.8626,5.26772 1.49528,1.86614 2.91496,3.90237 4.26733,6.21142 l 0.0425,-0.026 91.3737,151.336 0.1252,0.25039 7.86851,13.2945 0.75,1.3748 c 5.68229,10.7776 10.1185,22.1103 13.0925,33.8185 2.85118,11.2276 4.41496,23.2465 4.50591,35.941 v 0.1252 c -0.0614,21.0508 -4.48583,41.1614 -12.4134,59.478 -8.2441,19.0488 -20.1744,36.0815 -34.8319,50.1544 l -0.28346,0.25748 c -14.6303,14.0102 -32.139,25.3181 -51.6355,33.1016 -18.6543,7.44686 -39.0957,11.589 -60.5162,11.6799 h -0.1252 c -21.5941,0.0248 -42.0709,-4.0063 -60.6437,-11.3374 -19.581501,-7.72914 -37.200001,-19.0748 -51.950801,-33.1736 l -0.125197,-0.12401 c -14.7744,-14.1425 -26.7248,-31.167 -34.9677,-50.2181 -7.94883,-18.3744 -12.3331,-38.5075 -12.3473,-59.615 -0.03779,-12.6201 1.47284,-24.6567 4.3441,-36.0425 3.05433,-12.1134 7.5378,-23.5795 13.2413,-34.3099 l 0.750001,-1.12441 7.54961,-12.8504 0.125197,-0.2504 91.1587,-151.491 0.006,0.004 c 1.37835,-2.44016 2.83583,-4.54607 4.29567,-6.35788 1.63465,-2.02795 3.29646,-3.78307 4.84252,-5.26536 l 0.0531,0.0555 c 4.41615,-4.37126 9.56339,-7.813 15.0036,-10.0913 z"
   id="path1254"
   style="fill:#333333" />
  <path
   class="fil1"
   d="m 766.15107,181.13188 c 5.63859,-2.35748 11.9091,-3.63071 18.3425,-3.56693 6.56103,-0.0661 12.7169,1.2248 18.2398,3.54567 v 0.1252 c 5.63859,2.37284 10.7386,5.76969 14.9976,9.8256 l 0.002,-0.002 c 1.65354,1.56614 3.25748,3.26811 4.8626,5.26772 1.35709,1.69016 2.74843,3.71811 4.21536,6.24213 l 0.0945,-0.0567 91.3737,151.336 0.1252,0.2504 7.86851,13.2945 0.75,1.3748 c 5.68347,10.7776 10.1185,22.1103 13.0925,33.8185 2.85118,11.2276 4.41496,23.2465 4.50591,35.941 v 0.12519 c -0.0614,21.0508 -4.48583,41.1614 -12.4134,59.478 -8.2441,19.0488 -20.1744,36.0815 -34.8319,50.1544 l -0.28347,0.25748 c -14.6303,14.0102 -32.139,25.3181 -51.6355,33.1016 -18.6543,7.44686 -39.0957,11.589 -60.5162,11.6799 h -0.12519 c -21.5941,0.0248 -42.0709,-4.0063 -60.6437,-11.3374 -19.5815,-7.72914 -37.2,-19.0748 -51.9508,-33.1736 l -0.1252,-0.12401 c -14.7744,-14.1425 -26.7248,-31.167 -34.9677,-50.2181 -7.94883,-18.3744 -12.3331,-38.5075 -12.3473,-59.615 -0.0378,-12.6201 1.47284,-24.6567 4.3441,-36.0425 3.05433,-12.1134 7.5378,-23.5795 13.2413,-34.3099 l 0.75,-1.12441 7.54961,-12.8504 0.1252,-0.2504 91.1587,-151.491 0.006,0.004 c 1.37835,-2.44016 2.83583,-4.54607 4.29567,-6.35788 1.63465,-2.02795 3.29646,-3.78307 4.84252,-5.26536 l 0.0531,0.0555 c 4.41615,-4.37126 9.56339,-7.813 15.0036,-10.0913 z"
   id="path1256"
   style="fill:#333333" />
  <path
   class="fil1"
   d="m 1373.9511,181.13188 c 5.6409,-2.35866 11.9091,-3.63071 18.3425,-3.56693 6.561,-0.0661 12.7169,1.2248 18.2398,3.54567 v 0.1252 c 5.6386,2.37284 10.7386,5.76969 14.9976,9.8256 v -0.002 c 1.6536,1.56614 3.2575,3.26811 4.8626,5.26772 1.3571,1.69016 2.7485,3.71811 4.2154,6.24213 l 0.094,-0.0567 91.3737,151.336 0.1252,0.2504 7.8685,13.2945 0.75,1.3748 c 5.6835,10.7776 10.1185,22.1103 13.0925,33.8185 2.8512,11.2276 4.4149,23.2465 4.5059,35.941 v 0.12519 c -0.061,21.0508 -4.4858,41.1614 -12.4134,59.478 -8.2441,19.0488 -20.1744,36.0815 -34.8319,50.1544 l -0.2835,0.25748 c -14.6303,14.0102 -32.139,25.3181 -51.6355,33.1016 -18.6543,7.44686 -39.0957,11.589 -60.5162,11.6799 h -0.1252 c -21.5941,0.0248 -42.0709,-4.0063 -60.6437,-11.3374 -19.5815,-7.72914 -37.2,-19.0748 -51.9508,-33.1736 l -0.1252,-0.12401 c -14.7744,-14.1425 -26.7248,-31.167 -34.9677,-50.2181 -7.9488,-18.3744 -12.3331,-38.5075 -12.3473,-59.615 -0.038,-12.6201 1.4729,-24.6567 4.3441,-36.0425 3.0544,-12.1134 7.5378,-23.5795 13.2413,-34.3099 l 0.75,-1.12441 7.5497,-12.8504 0.1251,-0.2504 91.1587,-151.491 0.01,0.004 c 1.3783,-2.44252 2.837,-4.54843 4.2968,-6.35788 1.6287,-2.02441 3.2917,-3.77953 4.8413,-5.26536 l 0.053,0.0555 c 4.4161,-4.37244 9.5646,-7.81418 15.0036,-10.0913 z"
   id="path1258"
   style="fill:#333333" />
  <path
   class="fil1"
   d="m 478.15207,403.25488 c 5.63859,-2.35748 11.9067,-3.63071 18.3414,-3.56693 6.55985,-0.0661 12.7169,1.22362 18.241,3.54567 v 0.1252 c 5.63741,2.37166 10.7374,5.76851 14.9976,9.8256 l 0.002,-0.002 c 1.65,1.56614 3.25748,3.26811 4.8626,5.26772 1.49528,1.86614 2.91496,3.90237 4.26733,6.21142 l 0.0425,-0.026 91.3737,151.336 0.1252,0.25039 7.86851,13.2945 0.75,1.3748 c 5.68347,10.7776 10.1185,22.1103 13.0925,33.8185 2.85118,11.2276 4.41496,23.2465 4.50591,35.941 v 0.1252 c -0.0614,21.0508 -4.48583,41.1614 -12.4134,59.478 -8.2441,19.0488 -20.1744,36.0815 -34.8319,50.1544 l -0.28346,0.25748 c -14.6303,14.0102 -32.139,25.3181 -51.6355,33.1016 -18.6543,7.44686 -39.0957,11.589 -60.5162,11.6799 h -0.1252 c -21.5941,0.0248 -42.0709,-4.0063 -60.6437,-11.3374 -19.5815,-7.72914 -37.2,-19.0748 -51.9508,-33.1736 l -0.1252,-0.12401 c -14.7744,-14.1425 -26.7248,-31.167 -34.9677,-50.2181 -7.94883,-18.3744 -12.3331,-38.5063 -12.3473,-59.615 -0.0378,-12.6201 1.47284,-24.6567 4.3441,-36.0425 3.05433,-12.1134 7.5378,-23.5795 13.2413,-34.3099 l 0.75,-1.12441 7.54961,-12.8504 0.1252,-0.2504 91.1587,-151.491 0.006,0.004 c 1.37835,-2.44016 2.83583,-4.54607 4.29567,-6.35788 1.63465,-2.02795 3.29646,-3.78307 4.84252,-5.26536 l 0.0532,0.0555 c 4.41615,-4.37126 9.56339,-7.813 15.0036,-10.0913 z"
   id="path1260"
   style="fill:#333333" />
  <path
   class="fil1"
   d="m 1086.1111,403.25488 c 5.6409,-2.35866 11.9091,-3.63071 18.3425,-3.56693 6.561,-0.0661 12.7169,1.2248 18.2398,3.54567 v 0.1252 c 5.6386,2.37284 10.7386,5.76969 14.9976,9.8256 v -0.002 c 1.6536,1.56614 3.2575,3.26811 4.8626,5.26772 1.3571,1.69016 2.7485,3.71811 4.2154,6.24213 l 0.094,-0.0567 91.3737,151.336 0.1252,0.2504 7.8685,13.2945 0.75,1.3748 c 5.6835,10.7776 10.1185,22.1103 13.0925,33.8185 2.8512,11.2276 4.4149,23.2465 4.5059,35.941 v 0.12519 c -0.061,21.0508 -4.4858,41.1614 -12.4134,59.478 -8.2441,19.0488 -20.1744,36.0815 -34.8319,50.1544 l -0.2835,0.25748 c -14.6303,14.0102 -32.139,25.3181 -51.6355,33.1016 -18.6543,7.44686 -39.0957,11.589 -60.5162,11.6799 h -0.1252 c -21.5941,0.0248 -42.0709,-4.0063 -60.6437,-11.3374 -19.5815,-7.72914 -37.2,-19.0748 -51.95076,-33.1736 l -0.1252,-0.12401 c -14.7744,-14.1425 -26.7248,-31.167 -34.9677,-50.2181 -7.94883,-18.3744 -12.3331,-38.5063 -12.3473,-59.615 -0.0378,-12.6201 1.47284,-24.6567 4.3441,-36.0425 3.05433,-12.1134 7.5378,-23.5795 13.2413,-34.3099 l 0.75,-1.12441 7.54961,-12.8504 0.1252,-0.2504 91.15865,-151.491 0.01,0.004 c 1.3783,-2.44252 2.837,-4.54843 4.2968,-6.35788 1.6287,-2.02441 3.2917,-3.77953 4.8413,-5.26536 l 0.053,0.0555 c 4.4161,-4.37244 9.5646,-7.81418 15.0036,-10.0913 z"
   id="path1262"
   style="fill:#333333" />
  <path
   class="fil1"
   d="m 144.46407,692.82888 c 5.00906,-2.1437 10.6028,-3.30473 16.3606,-3.26339 5.82166,-0.0402 11.2984,1.13504 16.2189,3.24922 4.7504,2.04095 9.16654,5.07284 12.9732,8.77324 l 0.001,-10e-4 c 1.53071,1.48465 2.91378,2.95866 4.11496,4.48937 1.12205,1.42795 2.26536,3.12992 3.46654,5.22993 l 0.0354,-0.0213 56.954,96.2824 0.12519,0.24921 4.90512,8.45788 0.75,1.37599 c 3.89174,7.53662 6.96378,15.5953 9.06969,24.0638 1.98662,7.98071 3.07677,16.4894 3.13937,25.4339 v 0.1252 c -0.0425,14.9681 -3.10984,29.2311 -8.60198,42.1843 -5.75079,13.5626 -14.0646,25.6819 -24.2705,35.6835 l -1.24961,1.24961 -0.0791,0.0697 -0.0213,-0.0236 c -10.0878,9.58229 -21.9154,17.289 -34.9181,22.5874 -12.9036,5.25827 -27.2044,8.18386 -42.3496,8.25001 h -0.1252 c -15.0862,0.0177 -29.413,-2.86772 -42.4288,-8.11182 -13.6925,-5.51575 -25.999598,-13.6016 -36.289398,-23.6398 -10.3595,-10.1209 -18.7264,-22.2756 -24.4784,-35.8488 -5.51103,-13.0016 -8.55119,-27.2776 -8.56182,-42.2705 -0.0248,-8.94213 1.0311,-17.5028 3.0378,-25.6264 2.14725,-8.69174 5.25,-16.8236 9.16418,-24.3402 l 0.750001,-1.12559 4.70552,-8.1756 0.125197,-0.37441 56.8182,-96.3804 0.0555,0.0331 c 1.10787,-1.93701 2.32323,-3.69331 3.56929,-5.27126 1.85788,-2.34685 3.10158,-3.75473 3.93071,-4.56496 l 0.0472,0.0484 c 3.73229,-3.72638 8.20985,-6.72993 13.0559,-8.79686 z"
   id="path1264"
   style="fill:#333333" />
  <path
   class="fil1"
   d="m 752.46407,692.82888 c 5.00906,-2.1437 10.6028,-3.30473 16.3606,-3.26339 5.82166,-0.0402 11.2984,1.13504 16.2189,3.24922 4.74922,2.03977 9.16654,5.07284 12.9732,8.77324 l 0.001,-10e-4 c 1.53071,1.48465 2.9126,2.95748 4.11496,4.48937 1.12205,1.42795 2.26299,3.12874 3.46536,5.22993 l 0.0366,-0.0213 56.954,96.2824 0.12519,0.24921 4.90512,8.45788 0.75,1.37599 c 3.89174,7.53662 6.96378,15.5953 9.06969,24.0638 1.98662,7.98071 3.07677,16.4894 3.13937,25.4339 v 0.1252 c -0.0425,14.9681 -3.10984,29.2311 -8.60198,42.1843 -5.75079,13.5626 -14.0634,25.6819 -24.2705,35.6835 l -1.24961,1.24961 -0.0791,0.0697 -0.0213,-0.0236 c -10.0878,9.58229 -21.9154,17.289 -34.9181,22.5874 -12.9036,5.25827 -27.2032,8.18386 -42.3496,8.25001 h -0.1252 c -15.0862,0.0177 -29.413,-2.86772 -42.4288,-8.11182 -13.6925,-5.51575 -25.9996,-13.6016 -36.2894,-23.6398 -10.3595,-10.1209 -18.7264,-22.2756 -24.4784,-35.8488 -5.51103,-13.0016 -8.55119,-27.2776 -8.56182,-42.2705 -0.0248,-8.94213 1.0311,-17.5028 3.0378,-25.6264 2.14725,-8.69174 5.25,-16.8236 9.16418,-24.3402 l 0.75,-1.12559 4.70552,-8.1756 0.1252,-0.37441 56.8182,-96.3804 0.0555,0.0331 c 1.10787,-1.93701 2.32323,-3.69331 3.56929,-5.27126 1.85788,-2.34685 3.10158,-3.75473 3.93071,-4.56496 l 0.0473,0.0484 c 3.73229,-3.72638 8.20985,-6.72993 13.0559,-8.79686 z"
   id="path1266"
   style="fill:#333333" />
  <path
   class="fil1"
   d="m 1392.0811,692.82888 c 5.0102,-2.14488 10.6051,-3.30473 16.3606,-3.26339 5.824,-0.0402 11.2996,1.13622 16.2189,3.24922 4.7527,2.04095 9.1677,5.07402 12.9732,8.77324 v -10e-4 c 1.5307,1.48583 2.9149,2.95984 4.1149,4.48937 1.2508,1.59331 2.4673,3.38386 3.6614,5.47678 l 56.7945,96.0142 0.1252,0.24921 4.9051,8.45788 0.7501,1.37599 c 3.8917,7.53662 6.9637,15.5953 9.0696,24.0638 1.9867,7.98071 3.0768,16.4894 3.1394,25.4339 v 0.1252 c -0.043,14.9681 -3.1098,29.2311 -8.602,42.1843 -5.7508,13.5626 -14.0634,25.6819 -24.2705,35.6835 l -1.2496,1.24961 -0.079,0.0697 -0.021,-0.0236 c -10.0878,9.58229 -21.9154,17.289 -34.9181,22.5874 -12.9036,5.25827 -27.2032,8.18386 -42.3496,8.25001 h -0.1252 c -15.0851,0.0177 -29.413,-2.86772 -42.4288,-8.11182 -13.6925,-5.51575 -25.9996,-13.6016 -36.2894,-23.6398 -10.3595,-10.1209 -18.7264,-22.2756 -24.4784,-35.8488 -5.511,-13.0016 -8.5512,-27.2776 -8.5618,-42.2705 -0.025,-8.94213 1.0311,-17.5028 3.0378,-25.6264 2.1473,-8.69174 5.25,-16.8236 9.1642,-24.3402 l 0.75,-1.12559 4.7055,-8.1756 0.1252,-0.37441 56.8182,-96.3804 0.014,0.008 c 1.0606,-1.82008 2.2949,-3.57992 3.6106,-5.24646 1.1516,-1.45394 2.1697,-2.61851 3.0626,-3.55748 l -0.01,-0.007 c 3.9083,-4.16929 8.7284,-7.50945 13.9784,-9.74883 z"
   id="path1268"
   style="fill:#333333" />
 </g>
</svg>
