<?xml version="1.0" encoding="UTF-8" standalone="no"?>
<!-- Creator: CorelDRAW -->

<svg
   xml:space="preserve"
   width="1300"
   height="1000"
   style="clip-rule:evenodd;fill-rule:evenodd;image-rendering:optimizeQuality;shape-rendering:geometricPrecision;text-rendering:geometricPrecision"
   viewBox="0 0 1300 1000"
   version="1.1"
   id="svg1271"
   sodipodi:docname="rain.svg"
   inkscape:version="1.2 (dc2aedaf03, 2022-05-15)"
   xmlns:inkscape="http://www.inkscape.org/namespaces/inkscape"
   xmlns:sodipodi="http://sodipodi.sourceforge.net/DTD/sodipodi-0.dtd"
   xmlns="http://www.w3.org/2000/svg"
   xmlns:svg="http://www.w3.org/2000/svg"><sodipodi:namedview
   id="namedview1273"
   pagecolor="#505050"
   bordercolor="#eeeeee"
   borderopacity="1"
   inkscape:showpageshadow="0"
   inkscape:pageopacity="0"
   inkscape:pagecheckerboard="0"
   inkscape:deskcolor="#505050"
   showgrid="false"
   inkscape:zoom="0.50146484"
   inkscape:cx="798.66018"
   inkscape:cy="546.39923"
   inkscape:window-width="1920"
   inkscape:window-height="1027"
   inkscape:window-x="-8"
   inkscape:window-y="-8"
   inkscape:window-maximized="1"
   inkscape:current-layer="Layer_x0020_1" />
 <defs
   id="defs1245">
  <style
   type="text/css"
   id="style1243">
   <![CDATA[
    .fil0 {fill:#FF5722}
    .fil1 {fill:#FFFFFE;fill-rule:nonzero}
   ]]>
  </style>
 </defs>
 <g
   id="Layer_x0020_1"
   inkscape:label="Layer 1"
   inkscape:groupmode="layer">
  <metadata
   id="CorelCorpID_0Corel-Layer" />
  
  <path
   class="fil1"
   d="m 414.04758,18.845289 c 4.13095,-2.153794 8.74409,-3.318464 13.49253,-3.276953 4.8011,-0.04033 9.31682,1.139757 13.37566,3.262723 3.91665,2.048247 7.55863,5.092737 10.69894,8.8097 l 8.2e-4,-0.0012 c 1.2614,1.484886 2.40104,2.9674 3.3936,4.508027 0.92437,1.430328 1.8692,3.142926 2.85884,5.251663 l 0.0292,-0.02135 46.96973,96.682531 0.10325,0.25023 4.04522,8.49303 0.61853,1.3817 c 3.20949,7.56794 5.74299,15.66012 7.47973,24.16381 1.63836,8.01388 2.5374,16.55793 2.58903,25.53959 v 0.12572 c -0.035,15.02912 -2.56467,29.35139 -7.09402,42.35961 -4.74266,13.61897 -11.59803,25.78864 -20.01579,35.83181 l -1.03055,1.2548 -0.0654,0.0701 -0.0176,-0.0237 c -8.31937,9.62212 -18.07353,17.36086 -28.79681,22.68127 -10.64155,5.28012 -22.43535,8.21786 -34.92554,8.2843 h -0.10325 c -12.44153,0.0178 -24.25679,-2.87963 -34.99086,-8.14553 -11.29214,-5.53868 -21.44176,-13.65814 -29.92772,-23.73805 -8.54343,-10.16295 -15.44358,-22.36816 -20.18723,-35.99777 -4.54493,-13.05563 -7.05213,-27.39217 -7.06089,-42.44618 -0.0204,-8.97929 0.85033,-17.57553 2.50525,-25.73289 1.77083,-8.72786 4.32965,-16.89351 7.55767,-24.44134 l 0.61852,-1.13027 3.88062,-8.20958 0.10325,-0.37597 46.85773,-96.780918 0.0458,0.0332 c 0.91365,-1.946246 1.91498,-3.708659 2.94358,-5.293166 0.92341,-1.42321 1.76691,-2.59974 2.52571,-3.572265 l -0.006,-0.0072 c 3.22313,-4.186617 7.19726,-7.540658 11.52791,-9.789344 z"
   id="path1250"
   style="fill:#333333;stroke-width:0.910012" />
  <path
   class="fil1"
   d="m 915.45944,18.845289 c 4.13288,-2.153794 8.74603,-3.318464 13.49249,-3.276953 4.80308,-0.04033 9.31773,1.139757 13.37563,3.262723 3.91867,2.049432 7.55951,5.093922 10.69895,8.8097 v -0.0012 c 1.26141,1.486069 2.40106,2.9674 3.39355,4.508027 1.03155,1.59756 2.03474,3.396736 3.01947,5.499539 l 46.83817,96.413205 0.1033,0.25024 4.0453,8.49303 0.6185,1.3817 c 3.2095,7.56794 5.7429,15.66012 7.4797,24.16381 1.6384,8.01388 2.5374,16.55793 2.589,25.53959 v 0.12572 c -0.035,15.02912 -2.5647,29.35139 -7.094,42.35961 -4.7427,13.61897 -11.5981,25.78863 -20.01581,35.83181 l -1.03049,1.25481 -0.0646,0.0701 -0.0176,-0.0237 c -8.31931,9.62212 -18.07253,17.35964 -28.79674,22.68128 -10.64152,5.28011 -22.43433,8.21786 -34.92554,8.2843 h -0.1032 c -12.44062,0.0178 -24.25676,-2.87963 -34.99091,-8.14553 -11.29217,-5.53868 -21.44168,-13.65814 -29.92769,-23.73805 -8.54342,-10.16296 -15.44356,-22.36816 -20.18722,-35.99777 -4.54489,-13.05563 -7.05214,-27.39217 -7.06088,-42.44618 -0.0206,-8.97928 0.85035,-17.57553 2.50527,-25.73289 1.77085,-8.72786 4.32965,-16.89351 7.55767,-24.44134 l 0.61852,-1.13027 3.88061,-8.20958 0.10324,-0.37597 46.85777,-96.780927 0.0124,0.0083 c 0.87572,-1.828829 1.89162,-3.597178 2.97658,-5.268263 1.5352,-2.367278 2.55503,-3.765584 3.24168,-4.583931 l 0.0392,0.04862 c 3.07995,-3.744235 6.77254,-6.757897 10.76714,-8.833417 z"
   id="path1252"
   style="fill:#333333;stroke-width:0.910012" />
  <path
   class="fil1"
   d="m 135.31935,179.81748 c 4.65013,-2.36728 9.81941,-3.6458 15.12607,-3.58176 5.40988,-0.0664 10.48758,1.2287 15.04328,3.56041 v 0.12572 c 4.64915,2.38151 8.85509,5.79248 12.36846,9.86643 l 0.002,-0.002 c 1.36076,1.57265 2.68643,3.28169 4.01017,5.28961 1.23315,1.8739 2.40395,3.91859 3.51925,6.23724 l 0.035,-0.026 75.35551,151.9649 0.10327,0.25144 6.48912,13.34973 0.61853,1.38052 c 4.68615,10.82239 8.34469,22.20219 10.79732,33.95904 2.35137,11.27426 3.64101,23.3431 3.71601,36.09037 v 0.12572 c -0.0506,21.13828 -3.69945,41.33246 -10.23728,59.72517 -6.79888,19.12797 -16.63774,36.23145 -28.72573,50.36284 l -0.23377,0.25854 c -12.06554,14.06843 -26.50489,25.42332 -42.58358,33.23916 -15.38412,7.47782 -32.24206,11.63717 -49.90746,11.72844 h -0.10325 c -17.80859,0.0249 -34.69571,-4.023 -50.01263,-11.38456 -16.148778,-7.76126 -30.678692,-19.15407 -42.843608,-33.31146 l -0.103246,-0.12451 C 45.56813,534.70112 35.712688,517.60587 28.914798,498.4756 22.359434,480.02484 18.74374,459.80807 18.732029,438.61284 c -0.03116,-12.67254 1.214645,-24.75916 3.582563,-36.19227 2.51889,-12.16374 6.216392,-23.6775 10.92005,-34.45249 l 0.618517,-1.12908 6.226137,-12.90379 0.103246,-0.25144 75.178198,-152.12058 0.005,0.004 c 1.13672,-2.4503 2.33869,-4.56496 3.54261,-6.3843 1.34809,-2.03638 2.71858,-3.79879 3.99361,-5.28724 l 0.0438,0.0558 c 3.64198,-4.38942 7.88688,-7.84547 12.3734,-10.13324 z"
   id="path1254"
   style="fill:#333333;stroke-width:0.910012" />
  <path
   class="fil1"
   d="m 636.7699,179.81748 c 4.65012,-2.36728 9.82139,-3.6458 15.12698,-3.58176 5.41086,-0.0664 10.48759,1.2299 15.0423,3.56041 v 0.12572 c 4.65012,2.38271 8.85606,5.79367 12.36846,9.86643 l 0.002,-0.002 c 1.36366,1.57265 2.68643,3.28169 4.01017,5.28961 1.11918,1.69719 2.26662,3.73356 3.4764,6.26807 l 0.0779,-0.0569 75.3555,151.9649 0.10326,0.25145 6.48913,13.34973 0.61853,1.38052 c 4.68712,10.82239 8.34468,22.2022 10.79733,33.95904 2.35134,11.27426 3.64099,23.3431 3.71599,36.09037 v 0.12571 c -0.0506,21.13828 -3.69944,41.33246 -10.23728,59.72517 -6.79887,19.12797 -16.63773,36.23145 -28.72571,50.36284 l -0.23378,0.25854 c -12.06555,14.06843 -26.5049,25.42332 -42.58359,33.23916 -15.38412,7.47782 -32.24205,11.63717 -49.90745,11.72844 h -0.10324 c -17.80858,0.0249 -34.6957,-4.02296 -50.01262,-11.38452 -16.14878,-7.76126 -30.67868,-19.15407 -42.84361,-33.31146 l -0.10325,-0.12451 c -12.18438,-14.20128 -22.03983,-31.29653 -28.83771,-50.4268 -6.55538,-18.45076 -10.17107,-38.66753 -10.18278,-59.86276 -0.0312,-12.67253 1.21464,-24.75916 3.58257,-36.19227 2.51889,-12.16374 6.21639,-23.6775 10.92004,-34.45249 l 0.61852,-1.12908 6.22613,-12.90379 0.10326,-0.25144 75.17821,-152.12058 0.005,0.004 c 1.13672,-2.45031 2.33869,-4.56497 3.54261,-6.38431 1.3481,-2.03638 2.71859,-3.79879 3.99362,-5.28724 l 0.0438,0.0558 c 3.64197,-4.38943 7.88688,-7.84547 12.3734,-10.13324 z"
   id="path1256"
   style="fill:#333333;stroke-width:0.910012" />
  <path
   class="fil1"
   d="m 1138.0201,179.81748 c 4.652,-2.36847 9.8213,-3.6458 15.1269,-3.58176 5.4108,-0.0664 10.4875,1.2299 15.0423,3.56041 v 0.12572 c 4.6501,2.38271 8.8561,5.79367 12.3685,9.86643 v -0.002 c 1.3636,1.57265 2.6864,3.28169 4.0102,5.28961 1.1191,1.69719 2.2666,3.73356 3.4764,6.26807 l 0.077,-0.0569 75.3556,151.9649 0.1033,0.25145 6.4891,13.34973 0.6184,1.38052 c 4.6872,10.82239 8.3448,22.2022 10.7974,33.95904 2.3515,11.27426 3.6409,23.3431 3.716,36.09037 v 0.12571 c -0.051,21.13828 -3.6994,41.33246 -10.2373,59.72517 -6.7989,19.12797 -16.6378,36.23145 -28.7257,50.36284 l -0.2338,0.25854 c -12.0656,14.06843 -26.505,25.42332 -42.5835,33.23916 -15.3842,7.47782 -32.2421,11.63717 -49.9076,11.72844 h -0.1032 c -17.8085,0.0249 -34.6958,-4.02296 -50.0126,-11.38452 -16.1488,-7.76126 -30.6787,-19.15407 -42.8436,-33.31146 l -0.1033,-0.12451 c -12.1844,-14.20128 -22.0398,-31.29653 -28.8377,-50.4268 -6.5554,-18.45076 -10.1711,-38.66753 -10.1827,-59.86276 -0.031,-12.67253 1.2146,-24.75916 3.5825,-36.19227 2.519,-12.16374 6.2164,-23.6775 10.9201,-34.45249 l 0.6185,-1.12908 6.2262,-12.90379 0.1031,-0.25144 75.1782,-152.12058 0.01,0.004 c 1.1367,-2.45269 2.3397,-4.56734 3.5436,-6.38431 1.3432,-2.03283 2.7146,-3.79524 3.9926,-5.28724 l 0.044,0.0558 c 3.6419,-4.39061 7.8879,-7.84665 12.3733,-10.13324 z"
   id="path1258"
   style="fill:#333333;stroke-width:0.910012" />
  <path
   class="fil1"
   d="m 399.2583,402.86356 c 4.65013,-2.36728 9.81941,-3.6458 15.12609,-3.58176 5.40989,-0.0664 10.48757,1.22872 15.04328,3.56041 v 0.12572 c 4.64915,2.38153 8.85509,5.79249 12.36846,9.86644 l 0.002,-0.002 c 1.36074,1.57266 2.68643,3.2817 4.01017,5.28963 1.23314,1.87388 2.40396,3.91858 3.51925,6.23722 l 0.035,-0.026 75.35551,151.96492 0.10325,0.25143 6.48913,13.34975 0.61853,1.38052 c 4.68713,10.82237 8.34468,22.20217 10.79732,33.95904 2.35136,11.27426 3.641,23.3431 3.716,36.09034 v 0.12572 c -0.0506,21.13829 -3.69944,41.33247 -10.23728,59.72519 -6.79887,19.12796 -16.63773,36.23143 -28.72571,50.36282 l -0.23377,0.25855 c -12.06555,14.06843 -26.50491,25.42332 -42.58358,33.23917 -15.38413,7.4778 -32.24207,11.63716 -49.90747,11.72843 h -0.10325 c -17.80857,0.0249 -34.69569,-4.02294 -50.01261,-11.3845 -16.14878,-7.76126 -30.67868,-19.15408 -42.84361,-33.31146 l -0.10325,-0.12454 c -12.18439,-14.20127 -22.03983,-31.29653 -28.83772,-50.42679 -6.55537,-18.45076 -10.17106,-38.66633 -10.18276,-59.86274 -0.0312,-12.67256 1.21464,-24.75916 3.58255,-36.19229 2.51889,-12.16374 6.21639,-23.67748 10.92005,-34.45247 l 0.61852,-1.1291 6.22614,-12.9038 0.10325,-0.25144 75.1782,-152.12055 0.005,0.004 c 1.13673,-2.4503 2.33871,-4.56496 3.54262,-6.38431 1.3481,-2.03637 2.71858,-3.79879 3.99362,-5.28724 l 0.0439,0.0558 c 3.64198,-4.38942 7.88688,-7.84547 12.37341,-10.13324 z"
   id="path1260"
   style="fill:#333333;stroke-width:0.910012" />
  <path
   class="fil1"
   d="m 900.63965,402.86356 c 4.65198,-2.36846 9.82133,-3.6458 15.12696,-3.58176 5.41083,-0.0664 10.48751,1.2299 15.04232,3.56041 v 0.12572 c 4.65007,2.3827 8.85602,5.79366 12.36843,9.86644 v -0.002 c 1.36363,1.57266 2.68643,3.2817 4.01018,5.28963 1.1192,1.69717 2.2667,3.73355 3.47645,6.26807 l 0.0775,-0.057 75.35541,151.96492 0.1032,0.25144 6.4892,13.34975 0.6185,1.38051 c 4.6871,10.82238 8.3447,22.20218 10.7973,33.95905 2.3514,11.27425 3.641,23.3431 3.716,36.09034 v 0.12571 c -0.051,21.13829 -3.6994,41.33247 -10.2373,59.72519 -6.7988,19.12796 -16.6377,36.23143 -28.7257,50.36282 l -0.2337,0.25855 c -12.06564,14.06843 -26.50503,25.42332 -42.58357,33.23917 -15.38407,7.4778 -32.24199,11.63716 -49.90744,11.72843 h -0.10328 c -17.80851,0.0249 -34.69569,-4.02294 -50.0126,-11.3845 -16.14877,-7.76126 -30.67869,-19.15408 -42.84358,-33.31146 l -0.10324,-0.12454 c -12.18439,-14.20127 -22.03985,-31.29653 -28.83772,-50.42679 -6.55538,-18.45076 -10.17106,-38.66633 -10.18277,-59.86274 -0.0312,-12.67255 1.21465,-24.75916 3.58256,-36.19229 2.5189,-12.16374 6.2164,-23.67748 10.92004,-34.45247 l 0.61853,-1.1291 6.22613,-12.9038 0.10325,-0.25144 75.17816,-152.12055 0.01,0.004 c 1.13666,-2.45266 2.33963,-4.56734 3.54346,-6.38431 1.34326,-2.03281 2.71464,-3.79523 3.99258,-5.28723 l 0.044,0.0558 c 3.642,-4.3906 7.88791,-7.84665 12.37349,-10.13324 z"
   id="path1262"
   style="fill:#333333;stroke-width:0.910012" />
  <path
   class="fil1"
   d="m 124.0672,693.64095 c 4.13095,-2.1526 8.74408,-3.31846 13.49252,-3.27695 4.8011,-0.0403 9.31774,1.13977 13.37566,3.26273 3.91763,2.04942 7.55961,5.09391 10.69894,8.80969 l 8.2e-4,-10e-4 c 1.26239,1.49083 2.40299,2.97097 3.3936,4.50804 0.92534,1.43388 1.86823,3.14292 2.85884,5.25167 l 0.0292,-0.0215 46.96972,96.68252 0.10325,0.25025 4.04524,8.49304 0.61852,1.3817 c 3.2095,7.56794 5.74299,15.66011 7.47974,24.16381 1.63835,8.01388 2.53739,16.55793 2.58901,25.53959 v 0.12572 c -0.035,15.0303 -2.56467,29.35257 -7.09401,42.35961 -4.74265,13.61897 -11.59902,25.78862 -20.01578,35.83178 l -1.03055,1.2548 -0.0654,0.0701 -0.0176,-0.0236 c -8.31936,9.6221 -18.07353,17.36083 -28.79681,22.68125 -10.64154,5.28014 -22.43535,8.21788 -34.92554,8.28431 h -0.10325 c -12.44153,0.0178 -24.25678,-2.87965 -34.99087,-8.14554 C 91.390464,965.58426 81.240844,957.4648 72.754896,947.38488 64.211464,937.22192 57.311313,925.01671 52.567652,911.38711 c -4.544916,-13.05564 -7.05212,-27.39096 -7.06089,-42.44617 -0.02047,-8.97929 0.850341,-17.57554 2.505263,-25.7329 1.77082,-8.72785 4.329656,-16.8935 7.557656,-24.44135 l 0.618527,-1.13027 3.880619,-8.20957 0.103246,-0.37596 46.857737,-96.78095 0.0458,0.0332 c 0.91365,-1.94507 1.91595,-3.70867 2.94357,-5.29317 1.53219,-2.35661 2.55787,-3.77034 3.24165,-4.58394 l 0.0389,0.0486 c 3.078,-3.74186 6.77063,-6.75789 10.76713,-8.83341 z"
   id="path1264"
   style="fill:#333333;stroke-width:0.910012" />
  <path
   class="fil1"
   d="m 625.48229,693.64095 c 4.13095,-2.1526 8.74409,-3.31846 13.49252,-3.27695 4.8011,-0.0403 9.31774,1.13977 13.37566,3.26273 3.91666,2.04824 7.55961,5.09391 10.69893,8.80969 l 8.3e-4,-10e-4 c 1.26238,1.49083 2.40201,2.96978 3.3936,4.50804 0.92536,1.43388 1.86627,3.14175 2.85787,5.25167 l 0.0301,-0.0215 46.96974,96.68252 0.10324,0.25025 4.04523,8.49304 0.61852,1.3817 c 3.20949,7.56794 5.74301,15.66011 7.47974,24.16381 1.63836,8.01388 2.5374,16.55793 2.58902,25.53959 v 0.12572 c -0.035,15.0303 -2.56467,29.35257 -7.09401,42.35961 -4.74267,13.61897 -11.59804,25.78862 -20.01579,35.83178 l -1.03055,1.2548 -0.0653,0.0701 -0.0176,-0.0236 c -8.31938,9.6221 -18.07354,17.36083 -28.79683,22.68125 -10.64154,5.28014 -22.43435,8.21788 -34.92553,8.28431 h -0.10325 c -12.44153,0.0178 -24.25678,-2.87965 -34.99085,-8.14554 -11.29216,-5.53866 -21.44176,-13.65812 -29.92772,-23.73804 -8.54344,-10.16296 -15.44359,-22.36817 -20.18723,-35.99777 -4.54493,-13.05564 -7.05214,-27.39096 -7.06091,-42.44617 -0.0204,-8.97929 0.85035,-17.57554 2.50526,-25.7329 1.77084,-8.72785 4.32965,-16.8935 7.55766,-24.44135 l 0.61852,-1.13027 3.88063,-8.20957 0.10326,-0.37596 46.85773,-96.78095 0.0457,0.0332 c 0.91366,-1.94507 1.91598,-3.70867 2.9436,-5.29317 1.53218,-2.35661 2.55785,-3.77034 3.24163,-4.58394 l 0.039,0.0486 c 3.07799,-3.74186 6.77062,-6.75789 10.76715,-8.83341 z"
   id="path1266"
   style="fill:#333333;stroke-width:0.910012" />
  <path
   class="fil1"
   d="m 1152.9718,693.64095 c 4.1318,-2.15379 8.746,-3.31846 13.4925,-3.27695 4.8031,-0.0403 9.3187,1.14094 13.3756,3.26273 3.9196,2.04942 7.5606,5.09511 10.6989,8.80969 v -10e-4 c 1.2624,1.49202 2.4041,2.97214 3.3936,4.50804 1.0316,1.59994 2.0348,3.39792 3.0196,5.49954 l 46.8382,96.4132 0.1033,0.25025 4.0451,8.49304 0.6187,1.3817 c 3.2093,7.56794 5.7429,15.66011 7.4796,24.16381 1.6385,8.01388 2.5374,16.55793 2.589,25.53959 v 0.12572 c -0.035,15.0303 -2.5646,29.35257 -7.094,42.35961 -4.7426,13.61897 -11.598,25.78862 -20.0158,35.83178 l -1.0304,1.2548 -0.065,0.0701 -0.019,-0.0236 c -8.3193,9.6221 -18.0734,17.36083 -28.7967,22.68125 -10.6416,5.28014 -22.4345,8.21788 -34.9256,8.28431 h -0.1032 c -12.4407,0.0178 -24.2568,-2.87965 -34.9909,-8.14554 -11.2923,-5.53866 -21.4417,-13.65812 -29.9278,-23.73804 -8.5433,-10.16296 -15.4435,-22.36817 -20.1872,-35.99777 -4.5449,-13.05564 -7.0521,-27.39096 -7.0608,-42.44617 -0.022,-8.97929 0.8504,-17.57553 2.5053,-25.7329 1.7708,-8.72785 4.3295,-16.8935 7.5577,-24.44135 l 0.6184,-1.13027 3.8806,-8.20957 0.1033,-0.37596 46.8578,-96.78095 0.012,0.008 c 0.8746,-1.82764 1.8926,-3.59479 2.9776,-5.26825 0.9497,-1.45999 1.7894,-2.6294 2.5257,-3.57228 l -0.01,-0.007 c 3.2232,-4.18662 7.1983,-7.54067 11.528,-9.78935 z"
   id="path1268"
   style="fill:#333333;stroke-width:0.910012" />
 </g>
</svg>
