<?xml version="1.0" encoding="UTF-8" standalone="no"?>
<!-- Creator: CorelDRAW -->

<svg
   xml:space="preserve"
   width="1500"
   height="1500"
   style="clip-rule:evenodd;fill-rule:evenodd;image-rendering:optimizeQuality;shape-rendering:geometricPrecision;text-rendering:geometricPrecision"
   viewBox="0 0 1500 1500"
   version="1.1"
   id="svg25"
   sodipodi:docname="snow.svg"
   inkscape:version="1.2 (dc2aedaf03, 2022-05-15)"
   xmlns:inkscape="http://www.inkscape.org/namespaces/inkscape"
   xmlns:sodipodi="http://sodipodi.sourceforge.net/DTD/sodipodi-0.dtd"
   xmlns="http://www.w3.org/2000/svg"
   xmlns:svg="http://www.w3.org/2000/svg"><sodipodi:namedview
   id="namedview27"
   pagecolor="#505050"
   bordercolor="#eeeeee"
   borderopacity="1"
   inkscape:showpageshadow="0"
   inkscape:pageopacity="0"
   inkscape:pagecheckerboard="0"
   inkscape:deskcolor="#505050"
   showgrid="false"
   inkscape:zoom="0.50146484"
   inkscape:cx="914.32132"
   inkscape:cy="1023.0029"
   inkscape:window-width="2560"
   inkscape:window-height="1387"
   inkscape:window-x="-8"
   inkscape:window-y="-8"
   inkscape:window-maximized="1"
   inkscape:current-layer="Layer_x0020_1" />
 <defs
   id="defs4">
  <style
   type="text/css"
   id="style2">
   <![CDATA[
    .fil0 {fill:none}
    .fil1 {fill:#03A9F4}
    .fil2 {fill:#FFFFFE}
    .fil3 {fill:#FFFFFE;fill-rule:nonzero}
   ]]>
  </style>
 </defs>
 <g
   id="Layer_x0020_1"
   inkscape:label="Layer 1"
   inkscape:groupmode="layer">
  <metadata
   id="CorelCorpID_0Corel-Layer" />
  <rect
   class="fil0"
   y="-303.99307"
   width="1974.2162"
   height="2032.0468"
   id="rect7"
   x="-237.30476"
   style="stroke-width:0.97799" />
  
  <polygon
   class="fil2"
   points="1778.42,1309.56 1652.59,1341 1729.3,1440.02 1676.24,1476.66 1601.01,1378.61 1525.03,1476.87 1472.85,1440.02 1550.06,1340.32 1422.59,1308.82 1440.69,1246.92 1569.02,1279.74 1569.02,1151.52 1633.16,1151.52 1633.16,1279.77 1761.4,1247.33 "
   id="polygon11"
   style="fill:#333333"
   transform="matrix(0.96397274,0,0,0.99221032,-237.30477,-303.11884)" />
  <polygon
   class="fil2"
   points="624.358,1309.46 498.524,1340.9 575.234,1439.92 522.178,1476.57 446.942,1378.51 370.962,1476.77 318.788,1439.92 396.001,1340.23 268.524,1308.73 286.623,1246.83 414.955,1279.64 414.955,1151.42 479.097,1151.42 479.097,1279.67 607.335,1247.23 "
   id="polygon13"
   style="fill:#333333"
   transform="matrix(0.96397274,0,0,0.99221032,-237.30477,-303.11884)" />
  <polygon
   class="fil2"
   points="1234.08,1309.32 1108.25,1340.77 1184.95,1439.78 1131.9,1476.43 1056.66,1378.37 980.683,1476.63 928.51,1439.78 1005.72,1340.09 878.246,1308.59 896.345,1246.69 1024.68,1279.5 1024.68,1151.28 1088.82,1151.28 1088.82,1279.53 1217.06,1247.09 "
   id="polygon15"
   style="fill:#333333"
   transform="matrix(0.96397274,0,0,0.99221032,-237.30477,-303.11884)" />
  <polygon
   class="fil2"
   points="880.869,1629.92 755.034,1661.37 831.745,1760.38 778.688,1797.03 703.453,1698.98 627.473,1797.24 575.299,1760.38 652.511,1660.69 525.035,1629.19 543.134,1567.29 671.465,1600.11 671.465,1471.88 735.606,1471.88 735.606,1600.14 863.846,1567.7 "
   id="polygon17"
   style="fill:#333333"
   transform="matrix(0.96397274,0,0,0.99221032,-237.30477,-303.11884)" />
  <polygon
   class="fil2"
   points="1521.85,1629.92 1396.02,1661.37 1472.73,1760.38 1419.67,1797.03 1344.44,1698.98 1268.45,1797.24 1216.28,1760.38 1293.49,1660.69 1166.02,1629.19 1184.12,1567.29 1312.45,1600.11 1312.45,1471.88 1376.59,1471.88 1376.59,1600.14 1504.83,1567.7 "
   id="polygon19"
   style="fill:#333333"
   transform="matrix(0.96397274,0,0,0.99221032,-237.30477,-303.11884)" />
  <g
   id="_351029456"
   style="fill:#333333"
   transform="matrix(0.96397274,0,0,0.99221032,-237.30477,-303.11884)">
   <path
   id="_351031280"
   class="fil3"
   d="m 1076.92,319.125 c 70.9229,0 136.312,23.4709 188.504,62.9174 2.1095,1.59449 4.1953,3.21614 6.261,4.8626 -20.5784,7.46575 -40.4752,16.963 -59.4142,28.428 -34.702,21.0059 -65.3457,48.1831 -90.2327,80.08 -3.9354,-1.41378 -7.9051,-2.73189 -11.9055,-3.95079 -24.4855,-7.45985 -49.937,-11.2311 -75.5327,-11.2311 -62.96577,0 -123.48197,22.7268 -170.68397,64.4292 -31.8012,28.0973 -56.0504,63.6178 -70.343,103.335 -61.0961,4.07126 -118.787,29.5748 -162.872,72.6993 -48.2103,47.1591 -75.5162,110.978 -75.5162,178.575 0,58.2213 20.2725,113.65999 56.7603,158.10099 h -136.534 c -23.713,0 -19.1469,-0.9177 -41.8111,-6.1866 -42.9059,-9.9803 -81.143,-31.7859 -110.903,-61.70441 -40.4528,-40.6654 -65.3658,-96.1926 -65.3658,-157.406 0,-62.3339 25.8071,-118.743 67.5225,-159.552 41.5229,-40.6158 98.7213,-65.7402 161.751,-65.7402 2.18977,0 4.39961,0.0343 6.62835,0.10158 11.1413,-44.57601 35.7662,-83.9127 69.3886,-113.61701 40.6666,-35.9303 94.3997,-57.80669 153.194,-57.80669 23.5418,0 46.3347,3.53149 67.8449,10.08539 11.4437,3.48544 22.5272,7.84844 33.1666,13.00631 25.0559,-38.1638 58.6075,-70.46821 98.0363,-94.3347 47.2229,-28.5874 102.75202,-45.091 162.05702,-45.091 z"
   style="fill:#333333" />
   <path
   id="_351031184"
   class="fil3"
   d="m 1386.99,398.705 c 69.2103,0 133.022,22.904 183.953,61.3985 49.2343,37.213 86.4402,89.0375 104.907,148.906 33.9355,25.213 62.0445,57.6449 81.9603,94.989 20.9929,39.3591 32.8618,84.0485 32.8618,131.371 0,78.4737 -32.4933,149.497 -85.0264,200.887 -44.9327,43.9536 -103.055,79.1327 -169.641,82.8697 h -736.001 c -23.1402,0 -18.6851,-0.8953 -40.8012,-6.0378 -41.8701,-9.7394 -79.1847,-31.0181 -108.226,-60.2138 -39.476,-39.6839 -63.7878,-93.8705 -63.7878,-153.606 0,-60.828 25.1835,-115.876 65.8926,-155.699 40.5201,-39.6355 96.3379,-64.1528 157.845,-64.1528 2.13662,0 4.29331,0.0331 6.4689,0.0992 10.8721,-43.5 34.9028,-81.8871 67.7127,-110.875 39.6851,-35.0622 92.1213,-56.4107 149.496,-56.4107 22.9736,0 45.2162,3.44646 66.2067,9.84213 11.1673,3.40158 21.9827,7.65827 32.3658,12.6921 24.4512,-37.2425 57.1926,-68.7674 95.6694,-92.0576 46.0831,-27.8965 100.271,-44.002 158.144,-44.002 z"
   style="fill:#333333" />
  </g>
 </g>
</svg>
