<?xml version="1.0" encoding="UTF-8" standalone="no"?>
<!-- Creator: CorelDRAW -->

<svg
   xml:space="preserve"
   width="1600"
   height="1500"
   style="clip-rule:evenodd;fill-rule:evenodd;image-rendering:optimizeQuality;shape-rendering:geometricPrecision;text-rendering:geometricPrecision"
   viewBox="0 0 1600 1500"
   version="1.1"
   id="svg36"
   sodipodi:docname="thunderstorm.svg"
   inkscape:version="1.2 (dc2aedaf03, 2022-05-15)"
   xmlns:inkscape="http://www.inkscape.org/namespaces/inkscape"
   xmlns:sodipodi="http://sodipodi.sourceforge.net/DTD/sodipodi-0.dtd"
   xmlns="http://www.w3.org/2000/svg"
   xmlns:svg="http://www.w3.org/2000/svg"><sodipodi:namedview
   id="namedview38"
   pagecolor="#505050"
   bordercolor="#eeeeee"
   borderopacity="1"
   inkscape:showpageshadow="0"
   inkscape:pageopacity="0"
   inkscape:pagecheckerboard="0"
   inkscape:deskcolor="#505050"
   showgrid="false"
   inkscape:zoom="0.50146484"
   inkscape:cx="914.32132"
   inkscape:cy="1023.0029"
   inkscape:window-width="2560"
   inkscape:window-height="1387"
   inkscape:window-x="-8"
   inkscape:window-y="-8"
   inkscape:window-maximized="1"
   inkscape:current-layer="Layer_x0020_1" />
 <defs
   id="defs4">
  <style
   type="text/css"
   id="style2">
   <![CDATA[
    .fil0 {fill:#AB47BC}
    .fil1 {fill:#FFFFFE;fill-rule:nonzero}
   ]]>
  </style>
 </defs>
 <g
   id="Layer_x0020_1"
   inkscape:label="Layer 1"
   inkscape:groupmode="layer">
  <metadata
   id="CorelCorpID_0Corel-Layer" />
  
  <polygon
   class="fil1"
   points="1247.91,1600 1311.89,1600 1311.89,1727.12 1247.91,1727.12 "
   id="polygon9"
   style="fill:#333333"
   transform="matrix(1.0116845,0,0,1.0124635,-240.29601,-268.80484)" />
  <polygon
   class="fil1"
   points="256.001,1344.88 319.977,1344.88 319.977,1472 256.001,1472 "
   id="polygon11"
   style="fill:#333333"
   transform="matrix(1.0116845,0,0,1.0124635,-240.29601,-268.80484)" />
  <polygon
   class="fil1"
   points="1343.87,1440 1407.85,1440 1407.85,1568 1343.87,1568 "
   id="polygon13"
   style="fill:#333333"
   transform="matrix(1.0116845,0,0,1.0124635,-240.29601,-268.80484)" />
  <polygon
   class="fil1"
   points="351.963,1184.88 415.939,1184.88 415.939,1312.88 351.963,1312.88 "
   id="polygon15"
   style="fill:#333333"
   transform="matrix(1.0116845,0,0,1.0124635,-240.29601,-268.80484)" />
  <polygon
   class="fil1"
   points="1439.83,1600 1503.81,1600 1503.81,1727.12 1439.83,1727.12 "
   id="polygon17"
   style="fill:#333333"
   transform="matrix(1.0116845,0,0,1.0124635,-240.29601,-268.80484)" />
  <polygon
   class="fil1"
   points="447.925,1344.88 511.901,1344.88 511.901,1472 447.925,1472 "
   id="polygon19"
   style="fill:#333333"
   transform="matrix(1.0116845,0,0,1.0124635,-240.29601,-268.80484)" />
  <polygon
   class="fil1"
   points="1535.8,1440 1599.77,1440 1599.77,1568 1535.8,1568 "
   id="polygon21"
   style="fill:#333333"
   transform="matrix(1.0116845,0,0,1.0124635,-240.29601,-268.80484)" />
  <polygon
   class="fil1"
   points="543.887,1184.88 607.864,1184.88 607.864,1312.88 543.887,1312.88 "
   id="polygon23"
   style="fill:#333333"
   transform="matrix(1.0116845,0,0,1.0124635,-240.29601,-268.80484)" />
  <polygon
   class="fil1"
   points="1631.76,1600 1695.74,1600 1695.74,1727.12 1631.76,1727.12 "
   id="polygon25"
   style="fill:#333333"
   transform="matrix(1.0116845,0,0,1.0124635,-240.29601,-268.80484)" />
  <polygon
   class="fil1"
   points="1117.31,984.89 809.981,1215.39 938.182,1215.39 957.558,1272.76 608,1535.39 569.248,1484.63 843.762,1279.39 714.182,1279.39 695.057,1221.89 1002.39,991.391 842.181,991.391 820.305,936.138 1058.1,702.329 1101.85,748.831 922.644,927.387 1098.19,927.387 "
   id="polygon27"
   style="fill:#333333"
   transform="matrix(1.0116845,0,0,1.0124635,-240.29601,-268.80484)" />
  <path
   class="fil1"
   d="m 1163.5376,118.43206 c 70.1409,0 134.81,23.7204 186.4261,63.58798 49.8956,38.5378 87.602,92.21001 106.3169,154.21337 34.3918,26.11204 62.8783,59.6991 83.0626,98.37561 21.2752,40.76208 33.3031,87.04401 33.3031,136.05383 0,81.26943 -32.9303,154.8249 -86.1693,208.04605 -45.5366,45.52026 -104.4402,81.95457 -171.9216,85.82431 h -139.2483 l -21.5381,-64.80648 -111.6424,0.007 168.7206,-149.29989 -88.8112,-94.46416 -196.49644,176.45011 -31.46541,-94.67697 H 771.49036 L 919.57163,490.08928 831.07231,395.9564 551.59649,670.95768 l 38.1318,96.38339 h 86.95793 l -43.10373,32.35185 -85.10108,63.8749 c -4.94571,-0.86697 -9.24736,-2.45503 -21.17011,-5.28793 -42.43227,-10.08558 -80.24853,-32.12344 -109.67975,-62.35986 -40.00656,-41.09923 -75.07458,-97.21694 -75.07458,-159.08129 0,-62.9972 35.95112,-120.0073 77.20752,-161.24899 41.06528,-41.04901 97.63322,-66.43998 159.96755,-66.43998 2.16517,0 4.35065,0.0346 6.55524,0.10164 11.01826,-45.05027 35.37152,-84.80545 68.62337,-114.82652 40.2181,-36.31119 93.35905,-58.42197 151.50582,-58.42197 23.28149,0 45.82334,3.57072 67.09623,10.19318 11.31691,3.52289 22.2778,7.9319 32.80134,13.14572 24.7799,-38.5701 57.96123,-71.2185 96.95446,-95.33822 46.7029,-28.89226 101.6197,-45.57169 160.2701,-45.57169 z"
   id="path29"
   style="fill:#333333;stroke-width:1.01207" />
  <path
   class="fil1"
   d="m 991.875,133.0409 -0.002,-0.002 -0.52934,0.3145 -0.0669,0.0407 -0.0215,0.0119 c -0.82329,0.4891 -1.64539,0.98536 -2.46509,1.48163 l -0.0335,0.0203 -0.0549,0.0323 -0.0872,0.0538 c -0.73247,0.44366 -1.46257,0.8921 -2.19265,1.34291 l -0.0872,0.0538 -0.0872,0.0539 c -35.2568,21.81059 -66.23114,49.93885 -91.33124,82.80362 -3.89539,-1.42543 -7.82662,-2.75518 -11.78774,-3.98808 -24.84201,-7.73339 -50.695,-11.65568 -76.71158,-11.65568 -64.19857,0 -125.546,23.74905 -173.19027,66.76528 -32.3735,29.22831 -56.83796,66.04776 -71.19952,106.98601 -62.2533,4.25713 -120.68284,30.87254 -165.1403,75.31179 -48.77837,48.75973 -86.70227,113.3949 -86.70227,184.17116 0,1.08102 0.008,2.15846 0.0263,3.23469 l 0.001,0.0227 c 0.0179,1.06907 0.0442,2.13694 0.0788,3.20362 l 10e-4,0.0442 0.004,0.0837 c 0.0346,1.03079 0.0777,2.06159 0.12665,3.09 l 0.004,0.0646 c 0.0514,1.04993 0.11112,2.09627 0.17923,3.14262 l 0.006,0.0861 v 10e-4 c 0.0693,1.03797 0.14578,2.07595 0.22942,3.11153 l 0.008,0.10643 0.0156,0.16742 c 0.0812,0.97339 0.16609,1.94441 0.26049,2.91423 l 0.0119,0.12794 0.0239,0.22243 c 0.0932,0.9435 0.19238,1.88701 0.29873,2.82812 l 0.0167,0.14948 0.0227,0.18416 c 0.23539,2.04246 0.49947,4.07895 0.79461,6.10947 l 0.0358,0.23916 c 0.13623,0.93155 0.27842,1.8631 0.42778,2.79225 l 0.0335,0.21047 0.037,0.22002 c 0.15534,0.94949 0.31545,1.89778 0.48274,2.84486 l 0.0549,0.30255 c 0.16728,0.93992 0.34054,1.87744 0.51978,2.81378 l 0.0693,0.35635 c 0.18163,0.93275 0.36803,1.86429 0.56161,2.79465 l 0.0633,0.30254 c 0.19477,0.92796 0.39432,1.85592 0.60104,2.7803 l 0.0932,0.40897 c 0.20552,0.91361 0.41702,1.82602 0.63449,2.73725 l 0.0789,0.32526 c 0.22225,0.92556 0.44929,1.84994 0.68467,2.77192 l 0.0812,0.3157 c 0.23062,0.90284 0.4684,1.80449 0.70977,2.70375 l 0.12786,0.47115 c 0.2354,0.86697 0.47438,1.73036 0.72053,2.59255 l 0.141,0.49149 c 0.24256,0.84783 0.4911,1.69567 0.74441,2.54232 l 0.17447,0.57519 c 0.26168,0.86459 0.52695,1.72677 0.79819,2.58777 l 0.0991,0.31211 c 0.28319,0.89447 0.57236,1.78776 0.86631,2.67864 l 0.141,0.42452 c 0.28559,0.8586 0.57355,1.71481 0.8687,2.56863 l 0.17684,0.50703 c 0.28797,0.82751 0.57833,1.65143 0.87467,2.47535 l 0.18641,0.51181 c 0.30828,0.85502 0.62373,1.70764 0.94278,2.55907 l 0.13143,0.35156 c 0.31904,0.84187 0.64047,1.68372 0.96787,2.52319 l 0.23421,0.59912 c 0.32979,0.84066 0.66555,1.68013 1.00372,2.51721 l 0.0992,0.24394 c 0.36683,0.90284 0.73844,1.8021 1.11604,2.70017 l 0.10515,0.24873 c 0.38237,0.90883 0.77071,1.81526 1.16383,2.7205 l 0.0872,0.2021 c 0.37639,0.86338 0.75756,1.72318 1.14353,2.58297 l 0.23061,0.51181 c 0.37281,0.82751 0.75159,1.65263 1.13397,2.47655 l 0.15294,0.32885 c 0.39193,0.84306 0.78864,1.68372 1.19132,2.52319 l 0.19955,0.41375 0.99416,2.04964 h 0.004 c 11.31811,23.04114 25.98076,44.60661 42.57917,64.22654 C 268.87086,799.18357 169.67621,816.69635 84.731128,727.635 43.870203,684.79221 18.700707,626.29146 18.700707,561.80158 18.700707,426.40991 128.99759,320.21261 257.66666,324.57633 291.30557,182.50442 468.38233,110.06569 578.03578,165.90508 675.50652,10.30362 902.33226,-25.236885 1043.6969,90.201062 c 0.4768,0.388643 8.4981,7.008727 15.1335,12.486808 -23.2373,7.60185 -45.6788,17.75436 -66.95405,30.35356 z"
   id="path31"
   style="fill:#333333;stroke-width:1.01207" />
  <polygon
   class="fil1"
   points="1377.78,1144.89 1070.45,1375.38 1198.65,1375.38 1218.02,1432.76 864.001,1727.39 825.249,1676.64 1104.23,1439.39 974.649,1439.39 955.523,1381.88 1262.85,1151.39 1102.65,1151.39 1080.77,1096.13 1344.7,859.311 1388.46,905.813 1183.11,1087.38 1358.65,1087.38 "
   id="polygon33"
   style="fill:#333333"
   transform="matrix(1.0116845,0,0,1.0124635,-240.29601,-268.80484)" />
 </g>
</svg>
